<svg width="16" height="16" viewBox="0 0 16 16" fill="none" xmlns="http://www.w3.org/2000/svg">
<path fill-rule="evenodd" clip-rule="evenodd" d="M14.0355 6.14413V9.42001C14.4059 9.60666 14.6666 10.0464 14.6666 10.5578V12.1712C14.6666 12.4342 14.4889 12.6474 14.2698 12.6474H13.0075C12.7884 12.6474 12.6107 12.4342 12.6107 12.1712V10.5578C12.6107 10.0464 12.8715 9.60666 13.2418 9.42001V6.79794L10.7795 7.75046V9.53708C10.7795 10.009 10.4134 10.4571 9.74868 10.799C9.15145 11.1063 8.41831 11.2755 7.68447 11.2755C6.95062 11.2755 6.21749 11.1063 5.62026 10.799C4.96647 10.4627 4.60158 10.0237 4.58978 9.56027C4.58948 9.55258 4.58927 9.54489 4.58927 9.53708V7.75046L1.60832 6.59726C1.44444 6.53391 1.33325 6.3508 1.33325 6.14413C1.33325 5.93735 1.44444 5.75424 1.60832 5.69089L7.5626 3.38754C7.64174 3.3569 7.72699 3.3569 7.80613 3.38754L13.7604 5.69089C13.9244 5.75424 14.0355 5.93747 14.0355 6.14413ZM7.68457 10.3231C8.25515 10.3231 8.83305 10.2026 9.31187 9.98399C9.73098 9.79247 9.93758 9.58531 9.9859 9.49815V8.05748L7.80623 8.90062C7.76666 8.916 7.72557 8.92357 7.68447 8.92357C7.64337 8.92357 7.60227 8.91588 7.5627 8.90062L5.38304 8.05748V9.49779C5.43095 9.58482 5.63765 9.79222 6.05727 9.98399C6.53599 10.2026 7.11389 10.3231 7.68457 10.3231ZM7.6844 7.94713L3.02345 6.14415L7.6844 4.34117L12.3453 6.14415L7.6844 7.94713ZM13.4045 10.5578V11.6951H13.873V10.5578C13.873 10.4028 13.7679 10.2767 13.6387 10.2767C13.5096 10.2767 13.4045 10.4028 13.4045 10.5578Z" fill="#9E9E9E"/>
</svg>
