<svg width="16" height="16" viewBox="0 0 16 16" fill="none" xmlns="http://www.w3.org/2000/svg">
<path fill-rule="evenodd" clip-rule="evenodd" d="M13.3333 7C13.3333 8.6858 12.4321 10.338 10.9462 11.9064C10.4368 12.4442 9.89238 12.9341 9.34784 13.3677C9.15695 13.5197 8.97934 13.6541 8.81936 13.7696C8.72186 13.84 8.65083 13.8892 8.6106 13.916C8.44265 14.028 8.22385 14.028 8.0559 13.916C8.01568 13.8892 7.94464 13.84 7.84715 13.7696C7.68717 13.6541 7.50955 13.5197 7.31866 13.3677C6.77413 12.9341 6.22975 12.4442 5.72028 11.9064C4.23445 10.338 3.33325 8.6858 3.33325 7C3.33325 4.23858 5.57183 2 8.33325 2C11.0947 2 13.3333 4.23858 13.3333 7ZM8.72491 12.5854C9.23506 12.1792 9.74538 11.7199 10.2203 11.2186C11.547 9.81825 12.3333 8.3767 12.3333 7C12.3333 4.79086 10.5424 3 8.33325 3C6.12411 3 4.33325 4.79086 4.33325 7C4.33325 8.3767 5.11955 9.81825 6.44623 11.2186C6.92113 11.7199 7.43144 12.1792 7.94159 12.5854C8.08084 12.6963 8.2121 12.7968 8.33325 12.8863C8.45441 12.7968 8.58567 12.6963 8.72491 12.5854ZM8.33325 9C9.43782 9 10.3333 8.10457 10.3333 7C10.3333 5.89543 9.43782 5 8.33325 5C7.22868 5 6.33325 5.89543 6.33325 7C6.33325 8.10457 7.22868 9 8.33325 9ZM8.33325 8C7.78097 8 7.33325 7.55228 7.33325 7C7.33325 6.44772 7.78097 6 8.33325 6C8.88554 6 9.33325 6.44772 9.33325 7C9.33325 7.55228 8.88554 8 8.33325 8Z" fill="#9E9E9E"/>
</svg>
