<svg width="16" height="16" viewBox="0 0 16 16" fill="none" xmlns="http://www.w3.org/2000/svg">
<path fill-rule="evenodd" clip-rule="evenodd" d="M3.63637 3.3335H12.3637C13.2627 3.3335 13.9964 4.02883 14 4.88264C14 4.88478 14 4.88691 14 4.88905V4.89324M12.909 5.88499L8.31279 8.94345C8.12497 9.06843 7.875 9.06843 7.68719 8.94345L3.09079 5.88487V4.88906C3.09079 4.8062 3.11179 4.72755 3.14896 4.65771L7.99999 7.88573L12.8509 4.6578C12.888 4.72762 12.909 4.80623 12.909 4.88906V5.88499ZM2.00004 4.87816C2.00001 4.88179 2 4.88542 2 4.88905V4.89692M3.63637 3.3335C2.73894 3.3335 2.00624 4.0264 2.00004 4.87816L3.63637 3.3335Z" fill="white"/>
</svg>
