<svg width="24" height="24" viewBox="0 0 24 24" fill="none" xmlns="http://www.w3.org/2000/svg">
<path fill-rule="evenodd" clip-rule="evenodd" d="M9.81996 16.8992V12.5778L4.17336 6.15193C3.77358 5.69698 4.1096 5 4.72872 5H19.2751C19.8942 5 20.2303 5.69698 19.8305 6.15193L14.1839 12.5778V18.2991C14.1839 18.8195 13.6149 19.1579 13.1313 18.9252L10.222 17.5253C9.97561 17.4067 9.81996 17.1644 9.81996 16.8992ZM12.9012 11.8695L17.7075 6.39991H6.29631L11.1026 11.8695C11.2137 11.9959 11.2746 12.156 11.2746 12.3215V16.4666L12.7292 17.1666V12.3215C12.7292 12.156 12.7902 11.9959 12.9012 11.8695Z" fill="white"/>
</svg>
