<svg width="24" height="24" viewBox="0 0 24 24" fill="none" xmlns="http://www.w3.org/2000/svg">
<path fill-rule="evenodd" clip-rule="evenodd" d="M13.5 1C13.5 1 14.24 3.609 14.24 5.72574C14.24 7.75387 12.89 9.39803 10.83 9.39803C8.76 9.39803 7.2 7.75387 7.2 5.72574L7.23 5.37131C5.21 7.73418 4 10.7961 4 14.1238C4 18.4754 7.58 22 12 22C16.42 22 20 18.4754 20 14.1238C20 8.81716 17.41 4.08158 13.5 1ZM11.57 13.2968C10.21 13.5724 9.4 14.4388 9.4 15.6695C9.4 16.9887 10.51 18.052 11.89 18.052C13.94 18.052 15.6 16.4177 15.6 14.3994C15.6 13.346 15.45 12.3122 15.14 11.3277C14.35 12.3812 12.94 13.0211 11.57 13.2968ZM6 14.1238C6 17.3826 8.69 20.0309 12 20.0309C15.31 20.0309 18 17.3826 18 14.1238C18 11.6034 17.34 9.17159 16.11 7.00563C15.58 9.5654 13.49 11.3671 10.83 11.3671C9.27 11.3671 7.87 10.7567 6.86 9.76231C6.3 11.1308 6 12.6174 6 14.1238Z" fill="#E7505A"/>
</svg>
