<svg width="134" height="48" viewBox="0 0 134 48" fill="none" xmlns="http://www.w3.org/2000/svg">
<mask id="mask0" mask-type="alpha" maskUnits="userSpaceOnUse" x="0" y="0" width="43" height="48">
<path fill-rule="evenodd" clip-rule="evenodd" d="M0 0.0864868H42.6023V47.9597H0V0.0864868Z" fill="white"/>
</mask>
<g mask="url(#mask0)">
<path fill-rule="evenodd" clip-rule="evenodd" d="M17.2607 41.5838C18.1347 42.0909 18.9379 42.5691 19.7527 43.0267C20.773 43.5996 21.801 43.6325 22.8326 43.0364C24.1792 42.2584 25.5313 41.49 26.88 40.7157C29.0156 39.4896 31.1518 38.2645 33.2849 37.0342C34.5828 36.2857 35.8806 35.5367 37.1678 34.7702C37.6377 34.4903 37.6227 34.4414 37.1488 34.1697C34.8237 32.8369 32.4988 31.5038 30.1733 30.1715C27.6233 28.7107 25.0528 27.2835 22.5348 25.7695C21.8235 25.3419 21.322 25.3251 20.6081 25.7528C17.977 27.3288 15.3 28.8284 12.6418 30.3595C10.294 31.7117 7.95263 33.0747 5.59726 34.4134C5.25979 34.6052 5.34158 34.7121 5.58729 34.8566C6.40612 35.338 7.23857 35.7973 8.04465 36.2987C8.32896 36.4757 8.54075 36.4782 8.82376 36.315C10.7088 35.2277 12.6031 34.1565 14.4923 33.0764C16.2813 32.0537 18.0656 31.0231 19.8565 30.0039C20.3895 29.7007 21.0343 29.8343 21.373 30.2903C21.7203 30.7579 21.6769 31.3656 21.2351 31.7754C21.059 31.9388 20.8335 32.0529 20.6217 32.174C17.4451 33.9902 14.2672 35.8036 11.0898 37.6182C11.0043 37.667 10.8832 37.6954 10.8745 37.8097C10.8642 37.9477 10.993 37.995 11.0906 38.0504C12.0295 38.5842 13.0173 39.0487 13.895 39.6683C14.6496 40.201 15.2272 40.1963 16.014 39.7107C17.975 38.5005 19.9993 37.3918 22 36.2457C23.4747 35.4009 24.9483 34.5541 26.4307 33.7227C27.0413 33.3802 27.6891 33.5494 28.0187 34.0978C28.3545 34.6564 28.1943 35.2589 27.5897 35.6599C27.3379 35.8268 27.071 35.9714 26.8083 36.1214C24.5307 37.421 22.2519 38.7184 19.9749 40.019C19.0872 40.5261 18.2033 41.0401 17.2607 41.5838ZM4.24634 25.9262C4.34764 25.9032 4.37869 25.9031 4.40202 25.8897C7.66503 24.0149 10.9237 22.1325 14.1934 20.2696C14.7643 19.9442 15.2863 19.5043 15.9625 19.3892C16.5484 19.2894 16.9745 19.6549 17.0111 20.2316C17.0552 20.9254 16.6175 21.2695 16.0979 21.5677C12.2334 23.7859 8.36963 26.0053 4.50159 28.2174C4.3126 28.3254 4.2407 28.444 4.24217 28.6584C4.25102 29.9549 4.25223 31.2515 4.24434 32.548C4.24217 32.8991 4.32925 32.9419 4.6368 32.7611C5.99207 31.9646 7.35939 31.1884 8.72254 30.4053C12.549 28.2067 16.374 26.0053 20.2055 23.8153C20.517 23.6373 20.6415 23.438 20.6399 23.0691C20.6246 19.5829 20.6312 16.0965 20.6285 12.6103C20.6283 12.4708 20.6993 12.2816 20.5774 12.2025C20.4263 12.1042 20.2861 12.2726 20.1571 12.3466C16.6039 14.3825 13.0541 16.4243 9.5013 18.4612C9.34024 18.5535 9.16366 18.6315 8.98439 18.6776C8.3738 18.835 7.89018 18.4477 7.88359 17.8199C7.87717 17.2032 8.25046 16.8454 8.73468 16.5675C12.5867 14.3563 16.4389 12.1456 20.2959 9.94328C20.5417 9.803 20.6393 9.64222 20.6361 9.36123C20.6233 8.20888 20.6388 7.05619 20.6249 5.90384C20.6216 5.62804 20.7773 5.22467 20.531 5.10497C20.2955 4.99063 19.9772 5.25122 19.7157 5.40179C17.1913 6.85537 14.6651 8.30609 12.141 9.76019C9.99177 10.9982 7.84179 12.2349 5.6977 13.4817C4.7002 14.0617 4.23879 14.9432 4.24252 16.095C4.25241 19.1779 4.24616 22.2608 4.24634 25.3438V25.9262ZM38.4077 24.1944C38.4077 21.5719 38.407 18.9495 38.408 16.327C38.4085 15.0697 37.9605 14.0721 36.8177 13.4244C35.1626 12.4861 33.5248 11.5174 31.8795 10.562C31.7457 10.4843 31.6116 10.3099 31.466 10.3801C31.3084 10.4562 31.3952 10.6662 31.3941 10.8148C31.3652 14.7755 31.3414 18.7364 31.3167 22.6971C31.3162 22.7691 31.3175 22.8413 31.3134 22.9131C31.2827 23.4533 30.9235 23.713 30.4004 23.574C29.6437 23.373 29.1353 22.6947 29.1356 21.871C29.1368 17.7212 29.1369 13.5714 29.1505 9.42159C29.1515 9.10903 29.0611 8.93398 28.7846 8.77727C26.8289 7.66877 24.8842 6.54151 22.9347 5.42229C22.6033 5.23202 22.5386 5.27647 22.5386 5.69507C22.5377 11.5307 22.5393 17.3663 22.5339 23.202C22.5336 23.4558 22.5897 23.6136 22.8334 23.7521C25.2393 25.1205 27.6362 26.5046 30.0349 27.8855C32.6213 29.3745 35.2056 30.867 37.7955 32.3499C37.9604 32.4443 38.1421 32.6546 38.3301 32.5458C38.4993 32.4478 38.4051 32.1988 38.4055 32.0184C38.4103 29.4104 38.4088 26.8024 38.4077 24.1944ZM0.063888 17.4244C0.0807139 17.3916 0.0976265 17.3587 0.114539 17.3259C1.02661 16.9602 1.85983 16.4395 2.73287 15.9973C2.91778 15.9038 3.01536 15.7346 2.90339 15.5281C2.79827 15.3344 2.62541 15.2887 2.42272 15.382C2.31795 15.4303 2.21717 15.4875 2.11196 15.5347C1.41473 15.8478 0.786534 16.2968 0.0672705 16.5662C0.0141041 15.403 -0.0774842 14.232 0.125901 13.0815C0.307777 12.0535 0.925738 11.2819 1.83668 10.7573C7.71611 7.37169 13.5938 3.98315 19.4777 0.605163C20.7047 -0.0993561 21.9483 -0.0807615 23.1797 0.627995C29.0481 4.00555 34.9198 7.37766 40.7848 10.7611C41.9177 11.4146 42.5286 12.4198 42.5709 13.7267C42.6021 14.6904 42.5719 15.6561 42.569 16.6211C42.4042 16.5333 42.2398 16.445 42.0747 16.3578C41.4768 16.0424 40.8805 15.7244 40.2801 15.414C40.0919 15.3166 39.8903 15.2668 39.741 15.4801C39.6111 15.6657 39.642 15.8488 39.8415 15.9559C40.738 16.437 41.6034 16.9797 42.5607 17.3423C42.5633 18.0301 42.5661 18.7179 42.5688 19.4056C42.4118 19.3361 42.2513 19.2737 42.0986 19.1959C41.8041 19.0458 41.5218 18.8691 41.2191 18.7386C41.0309 18.6574 40.8134 18.6471 40.7103 18.8978C40.6211 19.1147 40.7212 19.2514 40.914 19.3491C41.4636 19.6277 41.9841 19.9637 42.5644 20.182C42.5653 20.868 42.5663 21.554 42.5672 22.2401C41.8198 21.8442 41.0739 21.4452 40.324 21.0539C40.1136 20.944 39.8835 20.8533 39.7254 21.1307C39.5617 21.4177 39.7648 21.5432 39.9821 21.6574C40.8458 22.1115 41.7086 22.5673 42.5717 23.0225C42.5707 23.6914 42.5697 24.3605 42.5688 25.0294C42.4274 24.9599 42.2858 24.8911 42.1447 24.8209C41.8219 24.6605 41.507 24.4805 41.1735 24.3466C41.003 24.2781 40.7833 24.2752 40.6999 24.5098C40.6355 24.6904 40.6812 24.8556 40.8732 24.9439C41.4489 25.2089 41.9675 25.5857 42.5672 25.8035C42.567 26.4908 42.567 27.1781 42.5669 27.8654C42.1087 27.6254 41.6527 27.3809 41.1912 27.1476C40.9924 27.047 40.818 27.1064 40.7169 27.3025C40.6217 27.4873 40.6921 27.6573 40.8657 27.7412C41.4333 28.0156 41.9389 28.4141 42.5589 28.583C42.5627 29.2708 42.5665 29.9585 42.5703 30.6462C42.4412 30.5867 42.3092 30.5327 42.1833 30.467C41.5482 30.1351 40.9169 29.7957 40.2792 29.469C40.0823 29.3681 39.8687 29.3009 39.7151 29.5523C39.5559 29.813 39.7244 29.9796 39.9198 30.0733C40.8116 30.5006 41.6427 31.0457 42.562 31.4183C42.5724 32.5682 42.6752 33.7229 42.5052 34.8658C42.3425 35.9593 41.7163 36.7593 40.7639 37.3076C35.0841 40.5771 29.4015 43.8418 23.7249 47.117C22.9184 47.5822 22.1197 48.0131 21.14 47.9544C20.517 47.917 19.9546 47.7271 19.4244 47.4216C13.5727 44.0498 7.72374 40.6733 1.86981 37.3054C0.658779 36.6087 0.0723009 35.5526 0.0333585 34.191C0.00699217 33.2712 0.0467151 32.3495 0.056776 31.4288C0.925911 30.9829 1.79513 30.5373 2.66401 30.0909C2.87876 29.9806 3.02455 29.8129 2.90772 29.5728C2.78977 29.3302 2.57554 29.34 2.35629 29.4596C2.17961 29.5558 2.0039 29.6567 1.8189 29.7343C1.21204 29.9892 0.695032 30.4254 0.0501844 30.6021C0.0479294 30.0802 0.0455876 29.5583 0.0432459 29.037C0.0528731 29.0314 0.0715203 29.022 0.0705663 29.0195C0.0636278 28.9995 0.0528731 28.9806 0.0433326 28.9615C0.0334452 28.8256 -0.0048033 28.6848 0.112024 28.5712C0.635708 28.374 1.11655 28.0922 1.6045 27.8237C1.82601 27.7018 2.01526 27.5421 1.8816 27.2849C1.73199 26.9971 1.48108 27.0961 1.24873 27.2133C0.854098 27.4126 0.490086 27.6728 0.0626737 27.8067C0.0361339 27.1153 -0.0697651 26.4215 0.127722 25.7371C0.652534 25.5791 1.10189 25.2635 1.59452 25.0384C1.84613 24.9233 2.02081 24.7403 1.87102 24.4689C1.72826 24.2102 1.47293 24.2988 1.26312 24.403C0.866153 24.6001 0.477163 24.8132 0.084877 25.0196C-0.0405366 24.4587 0.0437663 23.8929 0.0440265 23.3297C0.0531333 23.3253 0.0705663 23.3197 0.0702194 23.3154C0.0686582 23.2946 0.0623268 23.2742 0.0576433 23.2537C0.0185274 23.1749 0.0239048 23.0991 0.0728213 23.0264C0.909606 22.5841 1.74613 22.1411 2.58352 21.6995C2.8072 21.5815 3.05595 21.4565 2.89983 21.1509C2.74736 20.8522 2.50191 20.9534 2.27007 21.0741C1.53173 21.4582 0.791564 21.8388 0.0521792 22.2208C0.0497507 21.668 0.0473223 21.1153 0.0448938 20.563C0.0537404 20.5574 0.0711734 20.5487 0.0701326 20.5455C0.0641482 20.5258 0.0539139 20.5073 0.045154 20.4885C0.0141041 20.3492 0.0156653 20.2173 0.131018 20.111C0.664243 19.9663 1.10848 19.6346 1.60545 19.4136C1.86261 19.2991 2.01959 19.101 1.86868 18.8337C1.71916 18.5689 1.47067 18.6731 1.26069 18.7824C0.866067 18.9878 0.476556 19.2029 0.0849637 19.414C-0.0299554 18.8166 0.0382155 18.2153 0.0447203 17.6161C0.101876 17.5577 0.0724744 17.4901 0.063888 17.4244Z" fill="#05AF78"/>
</g>
<path fill-rule="evenodd" clip-rule="evenodd" d="M110.224 18.9905C110.224 20.9574 111.766 22.5268 113.706 22.533C115.724 22.5396 117.327 20.9903 117.334 19.027C117.342 17.0258 115.757 15.4374 113.747 15.4299C111.795 15.4225 110.225 17.0094 110.224 18.9905ZM110.239 24.3049C110.228 24.5067 110.214 24.6458 110.214 24.7848C110.217 25.3693 110.219 25.3695 109.615 25.37C108.965 25.3704 108.315 25.3577 107.665 25.3764C107.389 25.3843 107.292 25.3156 107.292 25.0218C107.3 19.3182 107.3 13.6145 107.293 7.91102C107.292 7.62743 107.37 7.54112 107.657 7.5502C108.379 7.57303 109.102 7.57952 109.823 7.55746C110.149 7.54752 110.234 7.64957 110.231 7.96732C110.215 9.73839 110.22 11.5097 110.219 13.281C110.219 13.377 110.228 13.4729 110.236 13.634C111.987 12.564 113.814 12.2781 115.737 12.8824C117.1 13.3105 118.193 14.13 119.031 15.2878C120.6 17.4574 120.578 20.5885 118.981 22.7202C117.96 24.0835 116.616 24.9448 114.944 25.2592C113.275 25.5732 111.716 25.2154 110.239 24.3049Z" fill="#4A473E"/>
<path fill-rule="evenodd" clip-rule="evenodd" d="M127.584 17.4647V17.4612C128.538 17.4612 129.492 17.4526 130.446 17.4662C130.745 17.4705 130.814 17.4053 130.644 17.141C129.938 16.0381 128.937 15.4335 127.621 15.4361C126.295 15.4389 125.27 16.031 124.548 17.1446C124.359 17.4367 124.502 17.4702 124.766 17.4679C125.706 17.4598 126.645 17.4647 127.584 17.4647ZM132.514 23.0579C131.081 24.6112 129.365 25.4358 127.246 25.3559C123.596 25.2183 120.733 21.8247 121.223 18.2076C121.687 14.7918 124.534 12.4162 127.964 12.5847C131.517 12.7593 134.357 16.1037 133.922 19.5993C133.832 20.3211 133.832 20.3209 133.088 20.3209C130.314 20.3208 127.54 20.3196 124.766 20.3244C124.633 20.3247 124.447 20.2439 124.372 20.3924C124.303 20.5294 124.447 20.6573 124.519 20.7756C125.759 22.7969 128.454 23.1124 130.113 21.4089C130.414 21.1008 130.563 21.0749 130.859 21.4021C131.38 21.9785 131.956 22.5052 132.514 23.0579Z" fill="#4A473E"/>
<path fill-rule="evenodd" clip-rule="evenodd" d="M76.5615 35.6607C77.0961 35.7375 77.5829 35.776 78.0737 35.7711C78.458 35.7671 78.6733 35.5699 78.727 35.215C78.8045 34.7033 78.847 34.1865 78.9104 33.6726C78.9355 33.4689 78.865 33.3896 78.6522 33.3953C78.219 33.4069 77.7846 33.4111 77.3518 33.3909C77.1384 33.381 77.0832 33.4992 77.0308 33.6553C76.4724 35.3188 75.3176 36.4869 73.8884 37.4326C73.7011 37.5564 73.6038 37.5482 73.4725 37.3654C73.2026 36.9899 72.8858 36.6534 72.5149 36.3727C72.4518 36.3249 72.3918 36.234 72.292 36.2851C72.2115 36.3265 72.2493 36.4113 72.2441 36.4779C72.1806 37.2877 72.181 37.2876 71.3431 37.2877C68.5535 37.2881 65.7641 37.2833 62.9746 37.2958C62.6421 37.2972 62.5051 37.2224 62.5429 36.8682C62.5764 36.5547 62.5752 36.2322 62.5428 35.9186C62.5071 35.5727 62.6552 35.5076 62.9621 35.5183C63.5249 35.5379 64.0895 35.5097 64.6525 35.5257C64.9429 35.534 64.9876 35.4473 64.9202 35.1736C64.6931 34.2499 64.4426 33.3351 63.9978 32.4889C63.8729 32.2514 63.8908 32.144 64.1619 32.0686C64.5773 31.953 64.9898 31.8214 65.3924 31.6674C65.5758 31.5973 65.6453 31.6458 65.7197 31.8025C66.1582 32.7266 66.5153 33.6786 66.7742 34.6692C66.8376 34.9114 66.7436 34.9388 66.5461 34.9819C66.0663 35.0866 65.5663 35.1473 65.1579 35.5201C65.8715 35.5201 66.5852 35.5199 67.2989 35.5203C67.45 35.5204 67.4795 35.4015 67.5226 35.2965C67.9987 34.136 68.3799 32.9478 68.586 31.7074C68.647 31.3402 68.5705 31.1835 68.1319 31.1921C66.5716 31.2224 65.0102 31.1929 63.4496 31.2095C63.1216 31.213 63.0145 31.1214 63.0431 30.798C63.0797 30.3854 62.9248 29.845 63.1343 29.5889C63.3574 29.3161 63.9189 29.5174 64.3319 29.5057C64.9096 29.4892 65.4884 29.491 66.0661 29.5055C66.3127 29.5117 66.4173 29.429 66.3846 29.1845C66.3827 29.1703 66.3835 29.1557 66.3845 29.1413C66.4101 28.743 66.2112 28.1919 66.4742 27.9884C66.7213 27.7974 67.2468 27.9587 67.6493 27.9748C67.9232 27.9858 68.1967 28.0103 68.4697 28.0363C68.5358 28.0426 68.6347 28.0614 68.6561 28.1049C68.6966 28.1874 68.6326 28.249 68.5587 28.3129C68.4259 28.4275 68.3411 29.2622 68.4275 29.4121C68.5133 29.561 68.6598 29.4969 68.7781 29.4977C69.6308 29.5039 70.4838 29.5134 71.3362 29.4948C71.6377 29.4881 71.7487 29.5736 71.7254 29.8805C71.7004 30.2101 71.7048 30.5439 71.7243 30.8742C71.7404 31.1474 71.6331 31.2128 71.3726 31.2069C70.6285 31.19 69.8837 31.201 69.1333 31.2479C69.5285 31.5039 69.9796 31.5693 70.4053 31.7076C70.5238 31.7461 70.6975 31.7343 70.7426 31.8674C70.8084 32.0619 70.5899 32.0261 70.5014 32.0951C70.4093 32.1668 70.4104 32.2713 70.3805 32.3641C70.0761 33.3079 69.7859 34.2565 69.465 35.1946C69.364 35.4896 69.458 35.5335 69.7201 35.53C70.4569 35.5199 71.1941 35.5238 71.931 35.5267C72.0372 35.5271 72.2166 35.4678 72.2258 35.6172C72.2611 36.1932 72.5697 35.828 72.7249 35.7485C74.5233 34.8266 75.3435 33.3207 75.3617 31.3318C75.3645 31.0314 75.2635 30.9768 74.9942 30.9814C74.2141 30.9947 73.4334 30.9752 72.6531 30.9845C72.414 30.9874 72.3203 30.9229 72.3361 30.669C72.3576 30.3246 72.355 29.9765 72.331 29.6322C72.3117 29.3553 72.4214 29.2959 72.6787 29.2996C73.7047 29.3141 74.7311 29.2991 75.757 29.3148C76.0467 29.3193 76.1549 29.2512 76.152 28.9362C76.1429 27.9502 76.1571 27.9494 77.1288 27.96C77.4756 27.9638 77.8223 27.9708 78.1689 27.979C78.2697 27.9814 78.3867 27.9761 78.4433 28.0737C78.5162 28.1995 78.3727 28.2297 78.3214 28.3048C78.1257 28.5913 78.2263 28.9163 78.2555 29.2185C78.2691 29.3591 78.4789 29.3009 78.6002 29.3016C79.6119 29.3067 80.6238 29.3154 81.6352 29.2983C81.9442 29.293 82.0865 29.3547 82.0484 29.6979C82.0152 29.9969 82.0188 30.3046 82.0476 30.6044C82.0782 30.9234 81.9406 30.9914 81.6541 30.9893C80.3679 30.9798 79.0807 31.0128 77.7956 30.973C77.3263 30.9586 77.4217 31.2402 77.3919 31.4861C77.3505 31.827 77.6159 31.7161 77.7727 31.7175C78.7411 31.7258 79.7095 31.7229 80.6778 31.72C80.8644 31.7194 81.0136 31.7153 81.0028 31.9833C80.9493 33.3065 80.9176 34.6325 80.5922 35.9258C80.3002 37.0862 79.8661 37.4403 78.6701 37.5453C78.6126 37.5503 78.5545 37.5493 78.4967 37.5495C78.1067 37.5513 77.672 37.6607 77.339 37.5239C76.9965 37.3832 77.1322 36.8651 76.9581 36.5446C76.8152 36.2818 76.7108 35.9981 76.5615 35.6607Z" fill="#4A473E"/>
<path fill-rule="evenodd" clip-rule="evenodd" d="M65.8092 19.0994C65.8092 17.1545 65.8175 15.2095 65.8014 13.2648C65.7985 12.9218 65.9011 12.8183 66.2381 12.8283C66.9455 12.8491 67.6539 12.8331 68.3619 12.8336C68.4608 12.8337 68.6216 12.7982 68.6426 12.8858C68.7471 13.3196 68.9498 13.136 69.2072 13.0312C72.2263 11.8025 75.3589 13.1213 76.6502 15.8747C77.0175 16.658 77.1624 17.4888 77.1689 18.3392C77.1851 20.5145 77.1675 22.69 77.1811 24.8654C77.1835 25.2461 77.0957 25.4069 76.6738 25.3826C76.0112 25.3444 75.3445 25.3571 74.6805 25.378C74.3451 25.3887 74.2294 25.2916 74.2317 24.94C74.2458 22.7935 74.2384 20.6468 74.2346 18.5002C74.2336 17.9346 74.1371 17.386 73.8801 16.8756C73.0632 15.2539 70.7391 14.9414 69.4956 16.2699C68.9436 16.8596 68.7 17.5505 68.6981 18.3371C68.6928 20.5268 68.686 22.7168 68.7047 24.9065C68.7079 25.2916 68.6013 25.4004 68.2199 25.3807C67.5713 25.3471 66.9189 25.3468 66.2701 25.3775C65.9126 25.3945 65.8011 25.3008 65.8044 24.934C65.8214 22.9893 65.8124 21.0443 65.8124 19.0994H65.8092Z" fill="#05AF78"/>
<path fill-rule="evenodd" clip-rule="evenodd" d="M63.7317 19.1427C63.7317 21.0734 63.725 23.0041 63.7381 24.9347C63.7404 25.2599 63.6747 25.3973 63.3117 25.3817C62.6194 25.352 61.9245 25.3604 61.2313 25.3784C60.9329 25.3862 60.7525 25.3334 60.7911 24.9864C60.828 24.6544 60.6317 24.7106 60.4461 24.8043C58.2932 25.8912 55.6 25.3445 53.9752 23.6821C52.777 22.4561 52.3368 20.9979 52.3464 19.3406C52.3574 17.425 52.3331 15.5092 52.3547 13.5938C52.3645 12.7319 52.1867 12.8505 53.1064 12.84C53.6698 12.8334 54.2344 12.8595 54.7967 12.833C55.1419 12.8168 55.2599 12.8939 55.2559 13.273C55.2339 15.3619 55.2361 17.4512 55.2494 19.5402C55.2554 20.477 55.5087 21.3443 56.2972 21.9278C57.1813 22.582 58.1863 22.7067 59.1836 22.2465C60.2214 21.7676 60.7835 20.9085 60.7898 19.7481C60.8014 17.6014 60.8027 15.4544 60.7833 13.3079C60.7798 12.918 60.8976 12.8144 61.2744 12.8303C61.9667 12.8593 62.6617 12.8535 63.3546 12.8319C63.6625 12.8223 63.7407 12.9201 63.7387 13.2212C63.7254 15.195 63.7318 17.1689 63.7317 19.1427Z" fill="#05AF78"/>
<path fill-rule="evenodd" clip-rule="evenodd" d="M102.573 24.6608C101.556 25.1641 100.535 25.4119 99.444 25.3582C96.635 25.2201 94.2592 22.888 94.1808 20.0861C94.1165 17.7838 94.1546 15.4787 94.1345 13.1747C94.1322 12.8954 94.2338 12.8419 94.4874 12.8471C95.2238 12.8625 95.9611 12.867 96.697 12.8454C96.9965 12.8366 97.0504 12.9463 97.0492 13.2164C97.04 15.4053 97.0277 17.5945 97.0509 19.7833C97.0709 21.6752 98.7933 22.9242 100.617 22.4039C101.751 22.0803 102.584 20.9724 102.588 19.7476C102.596 17.5875 102.6 15.4272 102.582 13.2671C102.58 12.9176 102.683 12.832 103.017 12.8446C103.695 12.87 104.375 12.8698 105.053 12.8451C105.386 12.833 105.495 12.9179 105.491 13.2681C105.474 15.1113 105.484 16.9548 105.484 18.7982C105.484 20.8576 105.474 22.917 105.49 24.9763C105.492 25.3058 105.402 25.3896 105.081 25.3775C104.418 25.3523 103.752 25.3494 103.089 25.378C102.711 25.3942 102.511 25.3111 102.588 24.8947C102.598 24.8403 102.582 24.781 102.573 24.6608Z" fill="#4A473E"/>
<path fill-rule="evenodd" clip-rule="evenodd" d="M92.2905 16.8419C91.3907 15.9393 90.4521 15.3269 89.215 15.4461C88.227 15.5412 87.3898 15.9623 86.7523 16.7338C85.5721 18.162 85.6973 20.3201 87.0245 21.5516C88.5908 23.0049 90.5534 22.8029 92.4294 20.9788C92.6537 21.8933 93.0472 22.7144 93.653 23.4245C93.8098 23.6084 93.6534 23.6776 93.5537 23.7643C92.6305 24.5678 91.5632 25.0591 90.3546 25.2737C86.9073 25.8862 83.942 23.438 83.2216 20.3713C82.3905 16.8338 84.9509 13.1081 88.5563 12.6446C89.7678 12.489 90.9103 12.6386 92.0082 13.1611C92.1351 13.2214 92.2908 13.252 92.2907 13.4413C92.2902 14.5422 92.2905 15.6431 92.2905 16.8419Z" fill="#4A473E"/>
<path fill-rule="evenodd" clip-rule="evenodd" d="M59.2537 33.6663C60.0555 33.6663 60.7828 33.6665 61.5102 33.6663C62.3623 33.666 62.3623 33.6658 62.3638 34.5135C62.3652 35.3196 62.3652 35.3196 61.5557 35.3195C60.7608 35.3194 59.9658 35.3164 59.1709 35.3204C58.5419 35.3236 58.638 35.2519 58.6289 35.8813C58.6287 35.8957 58.6288 35.9101 58.6288 35.9245C58.6278 37.0867 58.3846 37.3672 57.2357 37.5286C57.1501 37.5406 57.063 37.5464 56.9765 37.5474C56.6444 37.5511 56.2763 37.642 55.99 37.5288C55.6887 37.4097 55.8152 36.9713 55.6771 36.6975C55.555 36.4555 55.4573 36.2013 55.3334 35.9175C55.647 35.9175 55.9399 35.9066 56.2317 35.9206C56.4957 35.9333 56.6382 35.8513 56.6477 35.5636C56.6583 35.242 56.4332 35.3219 56.2639 35.3212C55.2522 35.3172 54.2402 35.3073 53.229 35.3271C52.9167 35.3332 52.821 35.2325 52.8538 34.9364C52.8995 34.5242 52.6735 33.9725 52.9434 33.7343C53.1741 33.5306 53.7141 33.6695 54.1173 33.6671C54.84 33.6627 55.5627 33.6664 56.2854 33.6655C56.4659 33.6653 56.6703 33.7189 56.6461 33.4047C56.628 33.1693 56.835 33.2463 56.9639 33.2368C57.155 33.2226 57.3758 33.2893 57.4937 32.975C56.7529 32.975 56.0404 32.9603 55.3291 32.982C55.0303 32.9911 54.9382 32.9129 54.9381 32.6046C54.9378 31.4427 54.9261 31.4427 56.1012 31.4427C57.0986 31.4427 58.0958 31.4426 59.0931 31.4427C59.9464 31.4427 59.9464 31.4427 60.4784 32.0204C60.5003 31.9849 60.5349 31.9542 60.537 31.9214C60.5857 31.1631 60.5851 31.163 59.8171 31.163C58.2272 31.1629 56.6372 31.1705 55.0475 31.1564C54.7474 31.1538 54.6533 31.2363 54.6531 31.5398C54.6524 32.3779 54.6386 32.3779 53.7944 32.38C52.878 32.3823 52.8781 32.3823 52.8786 31.4591C52.8789 30.969 52.9022 30.4776 52.8705 29.9897C52.8484 29.6494 52.9739 29.5591 53.2866 29.5946C53.4864 29.6173 53.6913 29.5897 53.8931 29.6008C54.1184 29.6133 54.1454 29.523 54.0417 29.3518C53.8724 29.0725 53.6998 28.795 53.5103 28.487C53.9784 28.3035 54.4347 28.1305 54.8856 27.9444C55.0101 27.8929 55.084 27.8905 55.1784 28.0053C55.4544 28.3412 55.6767 28.7098 55.8905 29.0852C56.0872 29.4304 55.5631 29.2944 55.6075 29.5969C55.8948 29.5969 56.2021 29.6081 56.5082 29.5934C56.7495 29.5818 56.6437 29.423 56.5902 29.3191C56.4455 29.0382 56.294 28.7605 56.1325 28.489C56.0432 28.3389 56.0149 28.2572 56.2321 28.1972C56.6207 28.0897 57.0011 27.9518 57.3817 27.8177C57.5452 27.7601 57.6495 27.7938 57.7375 27.9479C57.9085 28.2473 58.088 28.5424 58.2761 28.8314C58.4501 29.0989 58.4637 29.289 58.0875 29.3592C58.0099 29.3736 57.9221 29.4163 57.9178 29.5239C58.5443 29.7134 58.7723 29.6474 59.1201 29.1769C59.3864 28.8166 59.6227 28.4375 59.7842 28.0192C59.8604 27.8217 59.9667 27.7543 60.1754 27.8114C60.7179 27.9597 61.2644 28.0931 61.807 28.24C61.8988 28.2648 62.0322 28.2863 62.0434 28.3971C62.0562 28.5245 61.9174 28.5164 61.8311 28.5587C61.4482 28.7463 61.3193 29.1539 61.0735 29.4604C61.0262 29.5193 61.0741 29.5962 61.1722 29.5964C61.259 29.5967 61.3457 29.5985 61.4324 29.599C62.359 29.6051 62.3589 29.605 62.3585 30.5456C62.3583 31.05 62.349 31.5546 62.3628 32.0585C62.369 32.2861 62.324 32.4263 62.0618 32.3793C61.1675 32.219 60.4409 32.5202 59.8263 33.1626C59.6744 33.3213 59.4438 33.3986 59.2537 33.6663Z" fill="#4A473E"/>
<path fill-rule="evenodd" clip-rule="evenodd" d="M79.0049 19.0886C79.0049 17.1459 79.0128 15.2031 78.9975 13.2604C78.9948 12.9249 79.0796 12.8157 79.4264 12.8302C80.1036 12.8587 80.784 12.8618 81.4608 12.8297C81.8644 12.8106 81.9468 12.9816 81.9448 13.3339C81.9325 15.4492 81.9331 17.5646 81.9318 19.6799C81.9308 21.4212 81.9267 23.1625 81.9397 24.9036C81.9422 25.2434 81.8626 25.3966 81.4827 25.3808C80.7912 25.3522 80.0969 25.3551 79.4049 25.3805C79.0685 25.3929 78.9964 25.272 78.9985 24.9601C79.0111 23.003 79.0048 21.0458 79.0049 19.0886Z" fill="#05AF78"/>
<path fill-rule="evenodd" clip-rule="evenodd" d="M82.2246 9.26229C82.2286 10.1944 81.4316 11.0058 80.516 11.0019C79.56 10.9978 78.7482 10.2248 78.7713 9.24058C78.7951 8.22125 79.5034 7.54121 80.5323 7.50194C81.4388 7.46735 82.2205 8.31258 82.2246 9.26229Z" fill="#05AF78"/>
<path fill-rule="evenodd" clip-rule="evenodd" d="M99.1681 34.2757C99.4358 34.0589 100.018 34.4407 99.9711 33.7338C100.088 34.1613 100.348 34.2501 100.694 34.1922C100.76 34.1812 100.849 34.1954 100.833 34.3004C100.823 34.3659 100.762 34.3827 100.702 34.3846C100.572 34.3887 100.442 34.3941 100.312 34.3943C100.123 34.3947 100.118 34.5267 100.113 34.6618C100.107 34.8112 100.143 34.9135 100.326 34.9059C100.514 34.8981 100.702 34.9057 100.889 34.9092C100.951 34.9103 101.005 34.94 101.008 35.0055C101.01 35.0385 100.983 35.0955 100.956 35.1034C100.789 35.1544 100.545 35.0526 100.563 35.4022C100.581 35.7319 100.908 35.533 101.019 35.7482C100.341 35.796 100.611 36.2956 100.574 36.652C100.556 36.8262 100.576 37.0176 100.366 37.0799C100.184 37.1338 99.9841 37.1877 99.82 36.9998C99.9735 36.8046 100.277 37.0139 100.325 36.8084C100.387 36.5492 100.344 36.2658 100.349 35.993C100.352 35.8543 100.268 35.8395 100.156 35.8269C99.7491 35.7819 99.3416 35.8796 98.9272 35.7501C98.7336 35.6897 98.4886 35.8336 98.5178 36.1617C98.5457 36.4747 98.5238 36.7922 98.4638 37.1067C98.2507 36.8509 98.3402 36.5647 98.3321 36.2956C98.3251 36.0628 98.292 35.9234 98.0172 36.0227C97.9295 36.0545 97.8121 36.1377 97.7611 36.0001C97.7076 35.8561 97.8514 35.8583 97.9415 35.8241C98.271 35.6991 98.4477 35.2528 98.3219 34.901C98.2917 34.8166 98.2413 34.7909 98.1689 34.7816C98.0745 34.7694 97.9981 34.7932 97.9727 34.8995C97.9493 34.9972 97.9222 35.0941 97.9008 35.1923C97.888 35.2509 97.8724 35.3113 97.8012 35.3065C97.6909 35.2992 97.7174 35.2219 97.7306 35.1501C97.7941 34.8039 97.8552 34.4572 97.914 34.1275C98.0338 34.1067 98.0471 34.1581 98.0642 34.2164C98.0967 34.3273 97.9217 34.544 98.1972 34.5301C98.3991 34.5201 98.3047 34.3348 98.3257 34.2233C98.3521 34.0823 98.2703 33.9147 98.4083 33.7955C98.5699 33.8542 98.515 33.9719 98.5219 34.061C98.5389 34.2853 98.479 34.4751 98.8083 34.6185C99.0031 34.7035 98.438 34.7106 98.4978 35.0779C98.5838 35.6078 98.5627 35.6642 99.1318 35.6293C99.4482 35.6098 99.7669 35.6163 100.084 35.622C100.284 35.6257 100.361 35.5557 100.356 35.3449C100.351 35.1334 100.245 35.1214 100.082 35.1247C99.7647 35.1311 99.4468 35.1255 99.1291 35.1219C99.0599 35.1211 98.9757 35.123 98.9751 35.0212C98.9746 34.9246 99.0513 34.9123 99.1247 34.9106C99.298 34.9065 99.4716 34.8995 99.6446 34.9062C99.8147 34.9127 99.9123 34.8763 99.9081 34.672C99.9042 34.4823 99.8698 34.3773 99.6472 34.3807C99.5022 34.3829 99.3327 34.4512 99.1681 34.2757Z" fill="#4A473E"/>
<path fill-rule="evenodd" clip-rule="evenodd" d="M118.556 35.39C118.854 35.4464 119.002 35.3828 118.996 35.0246C118.99 34.6926 118.914 34.5825 118.565 34.5908C118.251 34.5983 118.14 34.6652 118.149 34.9971C118.157 35.306 118.214 35.4743 118.556 35.39ZM118.975 36.0633C119.031 35.7477 118.984 35.567 118.573 35.5734C118.196 35.5792 118.121 35.7088 118.128 36.0467C118.134 36.3737 118.153 36.5593 118.579 36.551C118.981 36.543 119.033 36.379 118.975 36.0633ZM119.176 35.1713C119.535 34.7738 119.639 34.4021 119.767 34.0435C119.8 33.9526 119.787 33.8072 119.913 33.8224C120.053 33.8393 120.022 33.97 119.98 34.0646C119.851 34.3545 120.029 34.3607 120.241 34.3708C121.002 34.4072 121.01 34.4115 120.976 35.1852C120.956 35.6447 120.929 36.1057 120.866 36.5607C120.795 37.0715 120.365 37.225 119.932 36.9179C119.949 36.8974 119.965 36.8596 119.983 36.8592C120.612 36.8418 120.657 36.8055 120.708 36.1862C120.742 35.7849 120.749 35.3812 120.79 34.9809C120.819 34.6968 120.758 34.5599 120.429 34.5731C120.065 34.5878 119.693 34.5294 119.583 35.0116C119.577 35.0377 119.555 35.0772 119.536 35.0805C118.901 35.1891 119.282 35.6905 119.177 36.0024C119.168 36.0283 119.175 36.0595 119.175 36.0883C119.176 36.7265 119.176 36.7404 118.555 36.7305C118.303 36.7266 118.134 36.7909 118.072 37.0434C117.892 36.9636 117.947 36.8319 117.946 36.7294C117.941 36.0531 117.943 35.3766 117.944 34.7001C117.944 34.6148 117.948 34.4562 117.963 34.4546C118.334 34.4165 118.475 34.1803 118.523 33.8494C118.525 33.8389 118.603 33.8254 118.638 33.8368C118.7 33.8573 118.726 33.92 118.697 33.9751C118.495 34.3615 118.715 34.3991 119.021 34.3753C119.169 34.3638 119.175 34.47 119.176 34.5754C119.176 34.7308 119.176 34.8861 119.176 35.1713Z" fill="#4A473E"/>
<path fill-rule="evenodd" clip-rule="evenodd" d="M95.7423 30.7558C95.7426 30.5398 95.738 30.3555 95.6811 30.1721C95.5414 29.7233 95.2249 29.4468 94.8245 29.4415C94.4008 29.4358 94.0517 29.7176 93.9289 30.1818C93.8157 30.6096 93.8181 31.0375 93.9907 31.4519C94.1339 31.7961 94.3713 32.0221 94.7687 32.0395C95.187 32.0579 95.4467 31.8353 95.6157 31.4856C95.7306 31.2478 95.7611 30.99 95.7423 30.7558ZM96.0951 30.9398C96.0807 31.4119 95.8911 31.9875 95.1928 32.2526C94.9713 32.3367 95.0682 32.4318 95.1628 32.5273C95.3735 32.74 95.6452 32.7709 95.9234 32.7458C96.0465 32.7347 96.1291 32.7596 96.1396 32.8836C96.1501 33.0066 96.0321 33.0016 95.9573 33.0134C95.4938 33.0864 95.0878 32.9564 94.8113 32.5793C94.676 32.3947 94.5281 32.2861 94.3237 32.2003C93.6564 31.9201 93.3682 31.1278 93.5776 30.2037C93.7287 29.5365 94.2103 29.1476 94.8623 29.1661C95.616 29.1875 96.1028 29.8073 96.0951 30.9398Z" fill="#4A473E"/>
<path fill-rule="evenodd" clip-rule="evenodd" d="M91.0694 31.7624C91.0694 30.9656 91.0611 30.2915 91.0762 29.6179C91.0793 29.4801 90.9463 29.2225 91.2474 29.226C91.5135 29.2291 91.3984 29.4634 91.4002 29.593C91.4116 30.3707 91.4103 31.1487 91.4014 31.9265C91.4001 32.0465 91.4944 32.2276 91.2586 32.2678C91.0784 32.2984 90.9999 32.1951 90.9241 32.0622C90.5681 31.4379 90.2085 30.8155 89.8494 30.193C89.78 30.0726 89.747 29.9273 89.6135 29.8422C89.4655 29.9113 89.5369 30.0368 89.5381 30.1376C89.5449 30.7709 89.5558 31.4041 89.5659 32.0375C89.5678 32.1553 89.5813 32.2742 89.4019 32.2709C89.2261 32.2677 89.237 32.1462 89.2369 32.031C89.2361 31.1955 89.2341 30.36 89.2395 29.5245C89.2402 29.4115 89.166 29.2487 89.3721 29.2163C89.5393 29.1899 89.639 29.2705 89.7185 29.4113C90.0791 30.0503 90.4454 30.6861 90.8103 31.3227C90.8782 31.4413 90.9488 31.5582 91.0694 31.7624Z" fill="#4A473E"/>
<path fill-rule="evenodd" clip-rule="evenodd" d="M104.482 31.6645C104.406 30.9418 104.428 30.2403 104.431 29.539C104.431 29.4145 104.35 29.2225 104.595 29.222C104.842 29.2214 104.757 29.4166 104.758 29.5389C104.765 30.344 104.766 31.1492 104.759 31.9544C104.758 32.0655 104.836 32.2341 104.637 32.269C104.476 32.2971 104.374 32.2199 104.292 32.0745C103.928 31.4235 103.555 30.7769 103.178 30.1325C103.111 30.0176 103.093 29.8613 102.926 29.793C102.926 30.5329 102.929 31.2573 102.922 31.9817C102.922 32.0805 102.995 32.2284 102.823 32.2662C102.613 32.3124 102.592 32.1816 102.592 32.0156C102.596 31.1817 102.591 30.3477 102.596 29.5138C102.597 29.3986 102.541 29.2357 102.741 29.2105C102.906 29.1895 103.002 29.2756 103.081 29.4168C103.465 30.1054 103.856 30.7906 104.25 31.4736C104.289 31.5404 104.298 31.6459 104.482 31.6645Z" fill="#4A473E"/>
<path fill-rule="evenodd" clip-rule="evenodd" d="M126.967 32.2241C126.713 32.3307 126.592 32.2318 126.488 32.0396C126.284 31.6613 126.05 31.2987 125.851 30.9182C125.718 30.6642 125.625 30.7182 125.441 30.8809C125.104 31.1796 125.112 31.5529 125.113 31.9439C125.114 32.0584 125.224 32.2547 124.971 32.2707C124.687 32.2888 124.784 32.0721 124.783 31.9401C124.775 31.1353 124.777 30.3303 124.781 29.5253C124.782 29.3987 124.709 29.2101 124.956 29.2181C125.199 29.2258 125.116 29.4169 125.119 29.5397C125.129 29.9208 125.123 30.3024 125.123 30.7803C125.699 30.2075 126.074 29.5677 126.625 29.1165C126.675 29.1655 126.725 29.2145 126.775 29.2635C126.54 29.5563 126.318 29.8601 126.067 30.1381C125.911 30.3104 125.922 30.4462 126.034 30.631C126.353 31.1554 126.655 31.6893 126.967 32.2241Z" fill="#4A473E"/>
<path fill-rule="evenodd" clip-rule="evenodd" d="M104.353 36.3366V36.3352C104.51 36.3352 104.667 36.3339 104.824 36.3357C104.956 36.3372 105.038 36.2993 105.037 36.1432C105.036 35.9953 104.971 35.9377 104.832 35.9381C104.518 35.9392 104.204 35.9416 103.89 35.9377C103.732 35.9358 103.701 36.0237 103.703 36.156C103.705 36.2785 103.756 36.3392 103.882 36.3372C104.039 36.3347 104.196 36.3366 104.353 36.3366ZM104.373 35.8182C104.531 35.8182 104.688 35.8141 104.846 35.8194C104.998 35.8245 105.045 35.7484 105.041 35.6087C105.037 35.4875 104.989 35.4223 104.863 35.4225C104.533 35.4232 104.204 35.4232 103.874 35.4229C103.745 35.4227 103.704 35.4943 103.701 35.6127C103.697 35.7547 103.751 35.8251 103.9 35.8201C104.057 35.8149 104.215 35.819 104.373 35.8182ZM104.328 35.299C104.47 35.299 104.614 35.3007 104.756 35.2986C104.897 35.2965 105.055 35.3267 105.043 35.0955C105.034 34.9053 104.908 34.908 104.776 34.9077C104.504 34.9072 104.232 34.9051 103.961 34.9076C103.833 34.9087 103.701 34.8971 103.698 35.0955C103.693 35.3213 103.84 35.2997 103.984 35.2989C104.099 35.2983 104.213 35.2988 104.328 35.299ZM104.335 36.8448V36.8472C104.507 36.8472 104.68 36.8453 104.853 36.8478C105.002 36.8499 105.053 36.7738 105.048 36.6326C105.044 36.5036 104.98 36.4555 104.86 36.4559C104.529 36.4571 104.198 36.4569 103.867 36.4576C103.74 36.4579 103.692 36.5228 103.696 36.6473C103.7 36.7613 103.723 36.8455 103.86 36.845C104.018 36.8444 104.176 36.8448 104.335 36.8448ZM103.155 36.9809C103.524 36.8671 103.503 36.5867 103.494 36.2987C103.483 35.9107 103.507 35.5212 103.486 35.1342C103.47 34.8627 103.535 34.7269 103.835 34.7639C103.997 34.7838 104.166 34.7697 104.167 34.5374C104.168 34.2552 103.95 34.3888 103.823 34.3655C103.657 34.3351 103.478 34.4026 103.297 34.3043C103.406 34.0898 103.6 34.2064 103.747 34.184C103.965 34.1505 104.255 34.2839 104.295 33.8942C104.304 33.8092 104.485 33.7823 104.483 33.8722C104.474 34.3832 104.852 34.1203 105.063 34.1781C105.181 34.2103 105.32 34.1367 105.452 34.2684C105.229 34.4344 104.984 34.3384 104.76 34.3588C104.591 34.3742 104.394 34.3249 104.383 34.585C104.372 34.8708 104.608 34.7752 104.723 34.7576C105.181 34.6872 105.298 34.8795 105.254 35.3038C105.217 35.6595 105.258 36.0228 105.243 36.3817C105.232 36.6376 105.245 36.8588 105.551 36.9809H103.155Z" fill="#4A473E"/>
<path fill-rule="evenodd" clip-rule="evenodd" d="M119.563 30.7309C119.563 30.3138 119.572 29.8964 119.559 29.4796C119.553 29.2719 119.63 29.2029 119.834 29.2088C120.238 29.2205 120.642 29.2096 121.046 29.2153C121.148 29.2167 121.298 29.1666 121.305 29.3502C121.314 29.5746 121.134 29.4969 121.026 29.5011C120.752 29.5115 120.477 29.5152 120.204 29.5004C119.986 29.4886 119.873 29.55 119.904 29.7862C119.915 29.8712 119.917 29.9605 119.904 30.0446C119.843 30.4157 119.973 30.5853 120.368 30.5191C120.508 30.4956 120.656 30.5093 120.8 30.5176C120.903 30.5235 121.053 30.4698 121.063 30.6501C121.073 30.8321 120.929 30.7988 120.819 30.802C120.704 30.8055 120.588 30.8016 120.473 30.8023C119.782 30.8059 119.906 30.75 119.907 31.3768C119.907 32.0718 119.816 31.9512 120.503 31.9725C120.719 31.9793 120.936 31.9739 121.152 31.9724C121.247 31.9717 121.327 31.9877 121.333 32.1034C121.338 32.1989 121.315 32.2714 121.195 32.271C120.704 32.2693 120.214 32.2738 119.724 32.269C119.515 32.267 119.569 32.1001 119.568 31.9824C119.563 31.5653 119.566 31.148 119.566 30.7309H119.563Z" fill="#4A473E"/>
<path fill-rule="evenodd" clip-rule="evenodd" d="M100.032 30.7435C100.032 30.3403 100.045 29.9366 100.028 29.5341C100.017 29.2963 100.08 29.1915 100.337 29.2039C100.726 29.2228 101.117 29.2104 101.506 29.2188C101.61 29.221 101.768 29.1696 101.774 29.347C101.782 29.5566 101.608 29.5001 101.49 29.5024C101.215 29.5078 100.94 29.517 100.666 29.5003C100.437 29.4864 100.35 29.5765 100.371 29.7958C100.377 29.8528 100.379 29.9121 100.37 29.9683C100.301 30.3867 100.435 30.5999 100.898 30.518C101.038 30.4933 101.186 30.5124 101.33 30.5169C101.426 30.5199 101.545 30.4959 101.549 30.6508C101.554 30.7963 101.452 30.8052 101.346 30.8052C101.273 30.8052 101.201 30.8027 101.129 30.8025C100.369 30.7993 100.194 31.0368 100.369 31.7979C100.411 31.9839 100.53 31.9693 100.657 31.9705C100.961 31.9737 101.264 31.9737 101.567 31.9748C101.681 31.9752 101.818 31.946 101.81 32.1278C101.802 32.306 101.66 32.2609 101.552 32.2684C101.537 32.2694 101.523 32.2692 101.508 32.2683C101.025 32.2387 100.36 32.4882 100.108 32.1664C99.8709 31.8637 100.057 31.2311 100.057 30.7436C100.049 30.7435 100.041 30.7435 100.032 30.7435Z" fill="#4A473E"/>
<path fill-rule="evenodd" clip-rule="evenodd" d="M99.0424 30.3904C99.0424 30.7069 99.0636 31.0251 99.0378 31.3394C98.9898 31.9266 98.6247 32.2735 98.0687 32.2975C97.4267 32.3251 97.0748 32.0724 96.95 31.4675C96.8088 30.7837 96.909 30.0895 96.8819 29.4006C96.877 29.2752 96.9262 29.2147 97.0554 29.2145C97.2269 29.2142 97.2254 29.3287 97.2251 29.4501C97.224 29.9251 97.2189 30.4003 97.2281 30.8752C97.232 31.0751 97.2518 31.2777 97.2926 31.4731C97.3723 31.853 97.6306 32.0306 98.0102 32.0192C98.3917 32.0079 98.627 31.804 98.6998 31.4288C98.805 30.8866 98.7389 30.3376 98.7566 29.7919C98.7609 29.6625 98.7594 29.5327 98.7559 29.4032C98.7526 29.2814 98.7974 29.2087 98.9298 29.2161C99.0463 29.2226 99.0636 29.3056 99.0638 29.3971C99.0647 29.7282 99.0642 30.0594 99.0642 30.3904H99.0424Z" fill="#4A473E"/>
<path fill-rule="evenodd" clip-rule="evenodd" d="M95.8973 35.1843C95.8434 35.0107 96.0189 34.717 95.608 34.7038C95.2433 34.692 95.2923 34.9215 95.3139 35.1259C95.3354 35.3285 95.1546 35.6478 95.6011 35.6461C95.963 35.6448 95.8762 35.3988 95.8973 35.1843ZM96.7197 35.1752C96.6598 34.9946 96.8578 34.7052 96.4323 34.6965C96.0048 34.6876 96.1113 34.959 96.1087 35.1796C96.1063 35.4053 96.0156 35.6729 96.4372 35.6599C96.8612 35.6467 96.6564 35.3533 96.7197 35.1752ZM96.9421 35.1631C96.9421 35.3058 96.9284 35.4086 96.9447 35.5066C96.9914 35.7894 96.8555 35.8713 96.6037 35.8295C96.2098 35.764 96.0391 35.9185 96.1108 36.3168C96.1294 36.4195 96.0476 36.577 96.2068 36.607C96.3438 36.6329 96.5145 36.6396 96.6299 36.5788C96.7644 36.5081 96.6179 36.3818 96.5977 36.2799C96.5852 36.2168 96.5016 36.1491 96.5906 36.0955C96.694 36.0333 96.7434 36.1135 96.7811 36.197C96.8816 36.4187 96.9827 36.6401 97.0831 36.8619C97.1136 36.9297 97.1394 37.0014 97.0461 37.0395C96.9716 37.07 96.9014 37.059 96.8797 36.9671C96.8294 36.7538 96.6819 36.8171 96.538 36.8339C96.0944 36.8861 95.6499 36.9292 95.2056 36.9743C95.0974 36.9854 94.9468 37.0462 94.9308 36.8744C94.9164 36.7176 95.0754 36.786 95.1581 36.7615C95.2403 36.7372 95.3281 36.7295 95.4139 36.7194C95.8798 36.6642 96.018 36.4496 95.9048 35.9916C95.8443 35.7465 95.6536 35.8239 95.5224 35.8384C95.1609 35.878 95.0161 35.748 95.0791 35.3862C95.0962 35.2885 95.097 35.1828 95.0802 35.0851C95.0049 34.649 95.1492 34.454 95.621 34.5193C96.0295 34.5758 95.8698 34.2417 95.9067 34.0472C95.923 33.9615 95.8566 33.8128 96.0246 33.831C96.1342 33.8429 96.1219 33.9643 96.1081 34.0443C96.0365 34.4574 96.2275 34.5608 96.6112 34.532C97.2311 34.4857 96.8087 34.9914 96.9421 35.1631Z" fill="#4A473E"/>
<path fill-rule="evenodd" clip-rule="evenodd" d="M105.727 30.7154C105.728 30.3124 105.739 29.9089 105.723 29.5064C105.714 29.2849 105.779 29.1958 106.01 29.2041C106.413 29.2187 106.818 29.211 107.222 29.2128C107.338 29.2133 107.469 29.1976 107.459 29.3751C107.451 29.5262 107.334 29.5033 107.236 29.5038C106.976 29.5052 106.715 29.5224 106.457 29.5001C106.168 29.4752 106.013 29.5504 106.068 29.8687C106.075 29.9107 106.075 29.9562 106.068 29.9979C105.994 30.4064 106.146 30.5835 106.573 30.5203C106.743 30.4953 106.919 30.5173 107.092 30.5182C107.188 30.5188 107.259 30.545 107.26 30.6613C107.262 30.7802 107.189 30.8019 107.094 30.8019C106.834 30.8018 106.574 30.811 106.314 30.7998C106.124 30.7915 106.077 30.8689 106.064 31.0507C105.999 31.9722 105.993 31.959 106.905 31.9802C107.108 31.9848 107.493 31.8046 107.488 32.1476C107.485 32.4082 107.108 32.2607 106.907 32.2631C106.524 32.2677 106.013 32.4407 105.793 32.188C105.604 31.9712 105.735 31.4761 105.727 31.1041C105.724 30.9746 105.726 30.845 105.727 30.7154Z" fill="#4A473E"/>
<path fill-rule="evenodd" clip-rule="evenodd" d="M86.1055 30.3323C86.1055 30.0447 86.1065 29.7572 86.105 29.4696C86.1042 29.3335 86.101 29.2023 86.299 29.2145C86.4763 29.2254 86.4502 29.3535 86.4506 29.4653C86.4524 30.0403 86.4448 30.6155 86.4565 31.1903C86.4632 31.5188 86.55 31.8206 86.8939 31.9658C87.4057 32.1817 87.9026 31.846 87.9298 31.2412C87.9555 30.6672 87.9435 30.0915 87.9495 29.5165C87.9508 29.3784 87.9089 29.2027 88.1407 29.2182C88.3515 29.2322 88.2801 29.404 88.2804 29.5164C88.2825 30.0913 88.3038 30.6685 88.2626 31.2408C88.205 32.0458 87.6866 32.4231 86.9044 32.2813C86.4734 32.2032 86.1672 31.8481 86.1238 31.3236C86.0967 30.9953 86.1187 30.6628 86.1187 30.3323H86.1055Z" fill="#4A473E"/>
<path fill-rule="evenodd" clip-rule="evenodd" d="M123 29.5879C122.965 29.5939 122.931 29.5998 122.896 29.6059C122.811 29.8776 122.725 30.1493 122.641 30.4211C122.439 31.0673 122.563 31.1933 123.256 31.0655C123.385 31.0417 123.444 30.994 123.408 30.8744C123.277 30.4441 123.137 30.0165 123 29.5879ZM124.163 32.1689C124.175 32.3076 124.067 32.2698 123.988 32.2719C123.835 32.2761 123.809 32.154 123.77 32.0467C123.685 31.809 123.698 31.4465 123.489 31.3645C123.214 31.2563 122.867 31.3349 122.551 31.3226C122.264 31.3113 122.332 31.567 122.238 31.7048C122.111 31.8917 122.235 32.3618 121.863 32.2328C121.625 32.1504 121.89 31.8174 121.953 31.6121C122.168 30.9143 122.411 30.225 122.653 29.5357C122.705 29.3874 122.714 29.1899 122.969 29.2042C123.187 29.2164 123.205 29.3696 123.256 29.5186C123.532 30.3323 123.812 31.1447 124.091 31.9575C124.115 32.0254 124.138 32.0932 124.163 32.1689Z" fill="#4A473E"/>
<path fill-rule="evenodd" clip-rule="evenodd" d="M111.608 32.3008C111.353 32.3078 111.057 32.2166 110.797 32.0149C110.717 31.9526 110.627 31.8935 110.721 31.7724C110.81 31.6584 110.887 31.7122 110.976 31.774C111.272 31.9777 111.589 32.0869 111.953 31.9826C112.165 31.9218 112.306 31.7967 112.341 31.5711C112.376 31.3477 112.297 31.1713 112.099 31.0642C111.885 30.9488 111.664 30.8476 111.444 30.743C110.849 30.4597 110.646 30.1203 110.82 29.6983C111.014 29.2291 111.595 29.029 112.144 29.2438C112.211 29.2698 112.279 29.2972 112.336 29.338C112.421 29.3981 112.591 29.4274 112.521 29.5737C112.434 29.7568 112.311 29.6163 112.199 29.5705C112.08 29.5218 111.957 29.4673 111.832 29.4533C111.525 29.4194 111.236 29.4776 111.133 29.8137C111.036 30.1288 111.261 30.2867 111.505 30.4061C111.685 30.4946 111.876 30.562 112.058 30.6474C112.575 30.8895 112.768 31.1873 112.684 31.6004C112.595 32.0333 112.213 32.3009 111.608 32.3008Z" fill="#4A473E"/>
<path fill-rule="evenodd" clip-rule="evenodd" d="M117.55 30.7696C118.256 30.7554 118.469 30.5894 118.462 30.0899C118.456 29.6042 118.198 29.4122 117.455 29.4763C116.773 29.5352 117.251 30.0796 117.149 30.385C117.028 30.7494 117.283 30.8229 117.55 30.7696ZM116.811 30.7238C116.81 30.3063 116.816 29.8886 116.808 29.4713C116.804 29.2939 116.856 29.1959 117.048 29.206C117.394 29.224 117.743 29.2145 118.084 29.2623C118.521 29.3232 118.771 29.6072 118.799 30.0028C118.832 30.4597 118.62 30.8017 118.208 30.9474C118.128 30.9756 118.038 30.9762 117.956 31.0003C117.699 31.0756 117.333 30.8809 117.193 31.1265C117.073 31.3348 117.157 31.6585 117.151 31.9312C117.15 31.9743 117.152 32.0176 117.15 32.0607C117.145 32.1582 117.168 32.2668 117.01 32.2727C116.854 32.2785 116.81 32.2011 116.811 32.0628C116.813 31.6165 116.812 31.1702 116.811 30.7238Z" fill="#4A473E"/>
<path fill-rule="evenodd" clip-rule="evenodd" d="M128.308 32.3006C128.032 32.3185 127.744 32.197 127.479 32.0101C127.408 31.9601 127.337 31.907 127.405 31.8029C127.47 31.7015 127.54 31.6681 127.65 31.7506C127.885 31.9275 128.145 32.0423 128.449 32.0201C128.729 31.9997 128.967 31.9064 129.035 31.6059C129.101 31.3082 128.949 31.1101 128.685 30.9878C128.503 30.9031 128.317 30.8252 128.134 30.7412C127.571 30.4821 127.366 30.1491 127.503 29.7205C127.624 29.3405 128.097 29.11 128.612 29.1746C128.773 29.1948 128.922 29.2483 129.05 29.3412C129.131 29.4004 129.293 29.4411 129.212 29.5938C129.124 29.7608 129.011 29.628 128.922 29.5841C128.711 29.4795 128.494 29.4046 128.259 29.4567C128.056 29.5016 127.874 29.5886 127.826 29.8236C127.78 30.0534 127.881 30.2234 128.072 30.3281C128.297 30.4522 128.539 30.5475 128.771 30.6594C129.306 30.9167 129.489 31.2205 129.377 31.661C129.278 32.0548 128.888 32.3008 128.308 32.3006Z" fill="#4A473E"/>
<path fill-rule="evenodd" clip-rule="evenodd" d="M114.947 32.2987C114.717 32.3064 114.455 32.2303 114.229 32.0641C114.141 31.9997 113.957 31.9482 114.092 31.7729C114.202 31.6299 114.286 31.7479 114.379 31.8074C114.628 31.9657 114.898 32.0627 115.198 32.0115C115.435 31.9709 115.644 31.8789 115.697 31.607C115.751 31.3275 115.632 31.1291 115.387 31.0077C115.168 30.8994 114.938 30.8142 114.718 30.7086C114.256 30.4871 114.064 30.1805 114.143 29.8079C114.226 29.4132 114.599 29.1632 115.096 29.1638C115.35 29.1642 115.579 29.237 115.78 29.3888C115.839 29.4334 115.952 29.4694 115.889 29.5841C115.822 29.7056 115.742 29.6738 115.64 29.6137C115.44 29.4955 115.222 29.4147 114.984 29.4481C114.744 29.4817 114.534 29.5729 114.484 29.8465C114.437 30.1014 114.587 30.2591 114.786 30.3666C114.987 30.4754 115.205 30.5537 115.413 30.6507C115.96 30.9057 116.134 31.1844 116.038 31.6422C115.952 32.0532 115.543 32.3121 114.947 32.2987Z" fill="#4A473E"/>
<path fill-rule="evenodd" clip-rule="evenodd" d="M109.212 29.1652C109.441 29.1541 109.671 29.2282 109.87 29.3836C109.937 29.436 110.076 29.4793 109.965 29.6133C109.891 29.7033 109.823 29.6631 109.742 29.615C109.555 29.5035 109.352 29.4236 109.129 29.4435C108.872 29.4666 108.641 29.5488 108.584 29.8425C108.532 30.1156 108.697 30.2785 108.914 30.3878C109.183 30.523 109.469 30.6248 109.735 30.7657C110.042 30.9289 110.19 31.1892 110.147 31.5497C110.104 31.9061 109.897 32.1353 109.573 32.2332C109.11 32.373 108.661 32.3231 108.261 32.0191C108.173 31.9528 108.094 31.897 108.181 31.7801C108.261 31.6713 108.339 31.7004 108.435 31.7709C108.699 31.9659 108.996 32.0754 109.326 32.0047C109.555 31.9554 109.767 31.8601 109.802 31.5765C109.834 31.3123 109.719 31.1284 109.492 31.0151C109.273 30.906 109.044 30.8186 108.823 30.7129C108.341 30.4822 108.15 30.1645 108.25 29.7739C108.344 29.4049 108.713 29.165 109.212 29.1652Z" fill="#4A473E"/>
<path fill-rule="evenodd" clip-rule="evenodd" d="M84.0399 33.2842C84.0397 34.5066 84.0422 35.729 84.0359 36.9514C84.0353 37.0726 84.121 37.2863 83.8808 37.2715C83.6886 37.2594 83.7636 37.0694 83.7634 36.9587C83.7585 34.4708 83.7586 31.9828 83.7634 29.495C83.7636 29.3854 83.6895 29.1988 83.8949 29.1941C84.1031 29.1891 84.0368 29.3747 84.0372 29.4875C84.0417 30.7531 84.0401 32.0186 84.0399 33.2842Z" fill="#4A473E"/>
<path fill-rule="evenodd" clip-rule="evenodd" d="M114.717 34.7481C114.627 34.7645 114.491 34.7179 114.455 34.8354C114.373 35.1059 114.275 35.383 114.267 35.6596C114.264 35.8111 114.479 35.9355 114.644 35.9596C114.81 35.9835 114.804 35.7913 114.84 35.6855C114.908 35.4845 114.947 35.2731 115 35.0667C115.062 34.824 114.981 34.7091 114.717 34.7481ZM114.577 34.0897C114.46 34.4157 114.559 34.6197 115.01 34.5484C115.25 34.5105 115.272 34.6635 115.238 34.8397C115.19 35.0925 115.144 35.3469 115.074 35.5942C114.983 35.9131 114.78 36.2355 115.192 36.4877C115.262 36.5301 115.269 36.6118 115.213 36.6742C115.117 36.782 115.058 36.6768 115.015 36.6178C114.827 36.3617 114.702 36.4488 114.529 36.6547C114.385 36.8266 114.147 37.1744 113.993 37.0149C113.806 36.8219 114.222 36.7282 114.347 36.5678C114.52 36.3453 114.645 36.1709 114.308 36.0066C114.017 35.8645 114.022 35.6634 114.09 35.3723C114.135 35.1782 114.498 34.8252 113.948 34.7219C113.891 34.7112 113.87 34.5645 113.959 34.569C114.41 34.5917 114.322 34.2342 114.392 33.9885C114.414 33.9112 114.392 33.7985 114.527 33.8234C114.667 33.8493 114.601 33.9478 114.577 34.0897Z" fill="#4A473E"/>
<path fill-rule="evenodd" clip-rule="evenodd" d="M115.681 37.0375C115.823 36.831 116.165 37.0488 116.185 36.7615C116.211 36.3912 116.198 36.0159 116.168 35.6455C116.159 35.5374 115.997 35.5755 115.901 35.5712C115.772 35.5656 115.642 35.5716 115.512 35.5673C115.441 35.5651 115.356 35.5581 115.352 35.4652C115.347 35.366 115.433 35.3634 115.504 35.3615C115.634 35.358 115.764 35.3522 115.893 35.36C116.103 35.3726 116.227 35.3105 116.201 35.0722C116.177 34.8485 116.389 34.7657 116.488 34.6154C116.548 34.5246 116.686 34.451 116.619 34.324C116.565 34.2198 116.438 34.2856 116.344 34.2751C116.07 34.2447 115.784 34.33 115.519 34.2187C115.519 34.1739 115.518 34.1291 115.518 34.0843C116 34.0843 116.484 34.0691 116.965 34.0933C117.115 34.1009 117.057 34.2384 116.988 34.3206C116.849 34.4853 116.713 34.6522 116.564 34.8068C116.445 34.9302 116.37 35.0639 116.424 35.2317C116.487 35.4257 116.664 35.3304 116.794 35.3583C116.937 35.3893 117.204 35.2765 117.203 35.4472C117.201 35.6863 116.927 35.5689 116.787 35.5611C116.479 35.5439 116.373 35.6543 116.403 35.9528C116.424 36.1664 116.41 36.3837 116.407 36.5993C116.402 37.1194 116.248 37.2189 115.681 37.0375Z" fill="#4A473E"/>
<path fill-rule="evenodd" clip-rule="evenodd" d="M89.1435 35.2403C89.0266 35.1796 89.0558 35.1034 89.0671 35.0373C89.1034 34.8257 89.0884 34.6693 88.8018 34.7045C88.5914 34.7303 88.3309 34.6171 88.3517 35.0165C88.381 35.5752 88.3537 36.1365 88.3619 36.6965C88.3653 36.9295 88.3063 37.0973 88.0437 37.1109C87.9401 37.1163 87.7911 37.1803 87.7639 37.0065C87.7323 36.806 87.9004 36.9158 87.9713 36.903C88.173 36.8667 88.1183 36.7177 88.1196 36.6005C88.1254 36.0835 88.1305 35.5663 88.12 35.0494C88.1177 34.9299 88.2153 34.7204 87.9793 34.7161C87.7978 34.7127 87.5756 34.6091 87.4449 34.8611C87.3653 35.0146 87.2673 35.3281 87.1324 35.2421C86.9214 35.1079 87.2245 34.9283 87.2687 34.755C87.3319 34.5075 87.44 34.2711 87.5331 34.0316C87.5623 33.9564 87.5792 33.8436 87.6939 33.8707C87.8205 33.9005 87.7732 34.0174 87.7439 34.0817C87.563 34.4797 87.7544 34.5425 88.102 34.5164C88.3886 34.4949 88.6806 34.5359 88.9655 34.5058C89.3451 34.4658 89.3834 34.639 89.2767 34.9283C89.2393 35.0298 89.2799 35.164 89.1435 35.2403Z" fill="#4A473E"/>
<path fill-rule="evenodd" clip-rule="evenodd" d="M90.6863 35.3894C91.0227 35.4633 91.138 35.3435 91.136 34.9906C91.134 34.6546 91.0175 34.5798 90.7097 34.5952C90.4442 34.6085 90.2467 34.5909 90.2721 34.9678C90.2923 35.2693 90.3065 35.4849 90.6863 35.3894ZM90.2953 36.0808C90.2178 36.3904 90.281 36.5612 90.6884 36.5482C91.0381 36.537 91.1626 36.4574 91.1408 36.0932C91.1219 35.7777 91.1395 35.5603 90.6973 35.5709C90.2995 35.5804 90.2256 35.7344 90.2953 36.0808ZM90.7049 34.4013C91.3467 34.2113 91.3454 34.5719 91.3259 34.9861C91.3044 35.444 91.3039 35.9045 91.3263 36.3623C91.3409 36.6626 91.2479 36.7548 90.9409 36.7434C90.3589 36.7219 90.3582 36.7415 90.1984 37.0143C90.0506 36.9843 90.0964 36.8629 90.0958 36.7761C90.0921 36.0734 90.0956 35.3706 90.0935 34.6679C90.093 34.5027 90.0803 34.3441 90.3278 34.3722C90.5696 34.3997 90.526 34.1824 90.5948 34.0563C90.6397 33.9739 90.569 33.7748 90.7644 33.8294C90.9709 33.887 90.7786 34.0138 90.7837 34.1079C90.7873 34.1738 90.75 34.242 90.7049 34.4013Z" fill="#4A473E"/>
<path fill-rule="evenodd" clip-rule="evenodd" d="M110.972 35.386C110.872 35.4676 110.635 35.2793 110.604 35.5183C110.574 35.753 110.799 35.6684 110.916 35.6642C111.054 35.6592 111.279 35.7636 111.311 35.5541C111.347 35.3237 111.117 35.4275 110.972 35.386ZM110.962 36.1678C111.093 36.1322 111.328 36.2457 111.306 35.9866C111.286 35.7523 111.066 35.8506 110.928 35.8431C110.8 35.8361 110.6 35.7824 110.602 35.9977C110.605 36.2469 110.827 36.1356 110.962 36.1678ZM110.966 36.2898C110.826 36.3408 110.585 36.1866 110.584 36.493C110.584 36.6571 110.686 36.6958 110.812 36.648C110.983 36.5826 111.278 36.7295 111.317 36.4605C111.354 36.2042 111.093 36.3361 110.966 36.2898ZM111.427 37.1547C111.376 36.7063 111.108 36.7676 110.83 36.8214C110.662 36.8541 110.488 36.8666 110.315 36.8733C110.229 36.8766 110.092 36.963 110.068 36.8066C110.047 36.6723 110.183 36.7134 110.256 36.7035C110.4 36.6839 110.395 36.5829 110.395 36.4817C110.396 36.2519 110.397 36.0221 110.396 35.7921C110.394 35.4519 110.393 35.4519 109.949 35.2687H113.284C113.286 35.3115 113.288 35.3544 113.291 35.3972C112.861 35.3972 112.429 35.4205 112.002 35.3901C111.639 35.3642 111.436 35.4492 111.533 35.848C111.591 36.0887 111.353 36.397 111.697 36.5719C111.593 36.7408 111.514 36.9211 111.427 37.1547Z" fill="#4A473E"/>
<path fill-rule="evenodd" clip-rule="evenodd" d="M92.0134 36.905C92.7822 36.7939 92.7912 36.7947 92.8595 36.0351C92.8954 35.635 92.8861 35.2309 92.9126 34.8296C92.9255 34.6345 92.8448 34.5762 92.665 34.5789C92.2717 34.5847 91.837 34.489 91.7003 35.0377C91.6818 35.1123 91.6265 35.2043 91.5119 35.1349C91.3874 35.0597 91.4871 34.9785 91.5224 34.9222C91.7073 34.6273 91.8152 34.3017 91.9222 33.9754C91.9476 33.8979 91.9334 33.7876 92.0676 33.8212C92.1955 33.8531 92.1613 33.9418 92.1251 34.0224C91.9833 34.3379 92.1573 34.3705 92.416 34.3748C93.1545 34.3872 93.1638 34.3943 93.122 35.1305C93.0945 35.6167 93.0644 36.1062 92.982 36.5851C92.8971 37.0778 92.5402 37.1971 92.0134 36.905Z" fill="#4A473E"/>
<path fill-rule="evenodd" clip-rule="evenodd" d="M93.96 36.9883C94.611 36.7564 94.5303 36.8369 94.5111 35.7387C94.3674 35.8635 94.2103 36.0001 94.053 36.1365C94.0066 36.1768 93.9546 36.1999 93.9001 36.1572C93.8206 36.0948 93.8541 36.037 93.9141 35.9824C94.1172 35.797 94.2962 35.5925 94.4474 35.3611C94.5616 35.1864 94.4957 35.0222 94.4345 34.8668C94.3582 34.6732 94.1877 34.794 94.05 34.7785C94.2103 34.5777 94.3271 34.3709 94.0373 34.1687C93.9756 34.1256 93.8824 34.0531 93.9943 33.9691C94.0769 33.9072 94.1305 33.997 94.1625 34.0452C94.3593 34.3415 94.511 34.2574 94.6561 34.0012C94.6877 33.9456 94.7235 33.8648 94.8169 33.9319C94.9018 33.9928 94.8674 34.0721 94.8171 34.112C94.4679 34.3887 94.6189 34.7198 94.6962 35.0499C94.8233 35.5928 94.7938 36.139 94.6872 36.6802C94.602 37.1125 94.3198 37.2253 93.96 36.9883Z" fill="#4A473E"/>
<path fill-rule="evenodd" clip-rule="evenodd" d="M107.29 35.4172H109.358C109.309 35.7131 108.827 35.3769 108.901 35.7769C108.958 36.0885 109.307 35.781 109.416 35.9982C109.4 36.0282 109.386 36.0713 109.375 36.0704C108.908 36.0294 108.869 36.3041 108.88 36.6759C108.894 37.1242 108.634 37.2435 108.191 36.9907C108.416 36.9263 108.677 36.9896 108.679 36.6107C108.682 36.1933 108.573 36.0527 108.151 36.091C107.838 36.1195 107.508 36.1585 107.198 36.0503C107.196 36.0059 107.195 35.9616 107.194 35.9173C107.567 35.9173 107.942 35.9256 108.315 35.9127C108.447 35.9082 108.671 36.0121 108.657 35.732C108.644 35.4644 108.431 35.5746 108.297 35.5701C107.961 35.5592 107.625 35.5666 107.289 35.5666C107.289 35.5168 107.29 35.4671 107.29 35.4172Z" fill="#4A473E"/>
<path fill-rule="evenodd" clip-rule="evenodd" d="M111.625 34.3588V34.3573C111.899 34.3573 112.173 34.3583 112.447 34.3567C112.535 34.3562 112.624 34.3445 112.636 34.2312C112.652 34.0853 112.548 34.0701 112.442 34.0699C111.938 34.0687 111.433 34.0695 110.929 34.0712C110.842 34.0714 110.755 34.0744 110.746 34.1956C110.734 34.3388 110.822 34.3597 110.934 34.3592C111.164 34.3581 111.395 34.3588 111.625 34.3588ZM111.695 34.8137V34.816C111.94 34.816 112.185 34.8177 112.43 34.8152C112.529 34.8142 112.638 34.8244 112.647 34.6741C112.656 34.5161 112.564 34.479 112.432 34.4793C111.928 34.4802 111.423 34.4796 110.919 34.4806C110.808 34.4808 110.72 34.5087 110.721 34.6479C110.722 34.7839 110.802 34.8146 110.917 34.8141C111.176 34.813 111.435 34.8137 111.695 34.8137ZM111.676 34.9646C111.503 34.9644 111.33 34.9752 111.158 34.9617C110.948 34.9452 110.627 35.0704 110.553 34.9007C110.448 34.6588 110.506 34.3436 110.505 34.0597C110.504 33.9145 110.623 33.9224 110.723 33.9222C111.356 33.9211 111.989 33.9247 112.621 33.9185C112.782 33.917 112.84 33.9666 112.857 34.1347C112.941 34.9423 112.927 34.9636 112.107 34.9647C111.963 34.9648 111.82 34.9647 111.676 34.9646Z" fill="#4A473E"/>
<path fill-rule="evenodd" clip-rule="evenodd" d="M108.301 34.4287C108.459 34.4287 108.617 34.4269 108.775 34.4293C108.913 34.4314 108.992 34.381 108.989 34.2294C108.987 34.0908 108.901 34.064 108.79 34.0638C108.488 34.0629 108.186 34.064 107.884 34.064C107.768 34.064 107.693 34.1044 107.692 34.2361C107.692 34.3584 107.747 34.4258 107.869 34.4289C108.013 34.4326 108.157 34.4298 108.301 34.4287ZM108.379 34.5472C108.199 34.5472 108.055 34.5501 107.911 34.5465C107.763 34.5427 107.707 34.6128 107.709 34.7563C107.712 34.9036 107.806 34.9105 107.913 34.9105C108.058 34.9106 108.209 34.9391 108.345 34.9057C108.558 34.8533 108.948 35.0804 108.958 34.7552C108.971 34.344 108.545 34.6543 108.379 34.5472ZM108.343 35.0638C108.329 35.0634 108.315 35.0634 108.3 35.0634C107.398 35.0625 107.405 35.063 107.468 34.1555C107.482 33.9638 107.545 33.907 107.724 33.9149C107.938 33.9244 108.154 33.9179 108.369 33.9176C109.208 33.9168 109.194 33.9167 109.198 34.7401C109.199 35.0106 109.123 35.0986 108.86 35.068C108.69 35.0482 108.516 35.0643 108.343 35.0638Z" fill="#4A473E"/>
<path fill-rule="evenodd" clip-rule="evenodd" d="M86.4633 35.0502C86.3158 35.2081 86.2621 35.2747 86.1987 35.3304C86.1566 35.3674 86.1217 35.474 86.0434 35.3848C86.0023 35.338 85.9443 35.2753 86.0098 35.1985C86.3378 34.8143 86.6012 34.3896 86.8073 33.9291C86.8441 33.8471 86.9181 33.834 86.9862 33.8671C87.0604 33.9033 87.0111 33.9695 86.9854 34.0101C86.5091 34.7595 86.7325 35.5956 86.6854 36.3977C86.6787 36.512 86.6963 36.6285 86.682 36.7414C86.6659 36.869 86.7654 37.0954 86.5787 37.0972C86.3872 37.099 86.4697 36.8697 86.4674 36.7425C86.4577 36.2178 86.4633 35.6926 86.4633 35.0502Z" fill="#4A473E"/>
<path fill-rule="evenodd" clip-rule="evenodd" d="M92.3607 30.7153C92.3607 30.2998 92.3617 29.8844 92.3601 29.4688C92.3597 29.3343 92.3517 29.2029 92.55 29.2119C92.7226 29.2198 92.7104 29.3404 92.7104 29.4558C92.7105 30.3155 92.7105 31.1752 92.7095 32.0349C92.7094 32.1481 92.7241 32.2664 92.5461 32.271C92.3709 32.2755 92.3713 32.1688 92.3716 32.0473C92.3728 31.6034 92.3721 31.1593 92.3721 30.7153H92.3607Z" fill="#4A473E"/>
<path fill-rule="evenodd" clip-rule="evenodd" d="M112.519 35.827C112.402 35.8961 112.16 35.7223 112.154 35.9593C112.15 36.1484 112.308 36.3941 112.489 36.3959C112.703 36.398 112.85 36.1357 112.862 35.9442C112.876 35.7386 112.639 35.8843 112.519 35.827ZM111.747 37.0055C112.354 36.5157 112.353 36.4602 111.678 35.6608C112.144 35.6608 112.553 35.6586 112.962 35.6619C113.135 35.6632 113.204 35.7396 113.114 35.908C113.074 35.9838 113.046 36.0708 112.991 36.1336C112.684 36.4829 112.614 36.7623 113.188 36.8766C113.259 36.8907 113.283 36.9358 113.261 37.0019C113.24 37.0633 113.199 37.0963 113.13 37.0702C113.089 37.0549 113.042 37.0483 113.01 37.0234C112.663 36.7585 112.323 36.7341 111.972 37.0208C111.918 37.0648 111.816 37.1023 111.747 37.0055Z" fill="#4A473E"/>
<path fill-rule="evenodd" clip-rule="evenodd" d="M102.705 37.1496V35.2856C102.548 35.1824 102.499 35.2749 102.44 35.3296C102.396 35.3711 102.347 35.4149 102.301 35.3561C102.272 35.3191 102.252 35.2324 102.274 35.2054C102.611 34.789 102.832 34.2992 103.078 33.8426C103.211 33.8911 103.212 33.9605 103.186 34.004C102.674 34.8538 102.931 35.7917 102.867 36.6928C102.858 36.8308 102.944 37.0031 102.705 37.1496Z" fill="#4A473E"/>
<path fill-rule="evenodd" clip-rule="evenodd" d="M106.639 35.5081C106.387 35.5289 106.299 35.8545 106.165 35.7086C105.961 35.4865 106.312 35.4427 106.401 35.3116C106.545 35.0994 106.726 34.9116 106.892 34.7145C106.928 34.672 106.969 34.617 107.031 34.6604C107.081 34.6948 107.103 34.7593 107.064 34.8112C106.644 35.3671 106.93 36.0065 106.85 36.6022C106.834 36.715 106.85 36.8316 106.845 36.9462C106.843 37.0151 106.846 37.104 106.75 37.1088C106.616 37.1155 106.641 37.0029 106.64 36.9255C106.637 36.4576 106.639 35.9898 106.639 35.5081Z" fill="#4A473E"/>
<path fill-rule="evenodd" clip-rule="evenodd" d="M87.704 35.5148C87.6266 35.8722 87.4834 36.1998 87.293 36.5065C87.2684 36.5462 87.2215 36.605 87.155 36.5515C87.1084 36.5141 87.0629 36.4586 87.1011 36.4052C87.3053 36.119 87.393 35.7838 87.517 35.4633C87.5398 35.4041 87.6083 35.3955 87.6655 35.419C87.7043 35.4349 87.736 35.468 87.704 35.5148Z" fill="#4A473E"/>
<path fill-rule="evenodd" clip-rule="evenodd" d="M88.8542 35.3819C88.8849 35.4182 88.9334 35.454 88.9527 35.5016C89.0703 35.7909 89.1835 36.0822 89.2931 36.3747C89.3194 36.445 89.3082 36.5184 89.2288 36.5548C89.1387 36.596 89.1061 36.5408 89.0795 36.4643C88.972 36.1567 88.8612 35.8502 88.75 35.5437C88.7181 35.4555 88.7582 35.412 88.8542 35.3819Z" fill="#4A473E"/>
<path fill-rule="evenodd" clip-rule="evenodd" d="M107.104 33.7786C106.897 34.2127 106.622 34.4135 106.355 34.6217C106.308 34.6588 106.259 34.6961 106.212 34.6335C106.191 34.6048 106.175 34.5316 106.186 34.5241C106.483 34.3307 106.661 33.9813 107.104 33.7786Z" fill="#4A473E"/>
<path fill-rule="evenodd" clip-rule="evenodd" d="M91.9088 35.2613C92.1785 35.4146 92.3202 35.6694 92.4775 35.9118C92.5207 35.9783 92.4863 36.0227 92.4384 36.0499C92.4092 36.0665 92.3344 36.0637 92.3251 36.0461C92.1879 35.7857 91.9432 35.5804 91.9088 35.2613Z" fill="#4A473E"/>
<path fill-rule="evenodd" clip-rule="evenodd" d="M120.353 35.9928C120.338 36.0088 120.307 36.0631 120.286 36.0595C120.236 36.051 120.174 36.0269 120.147 35.9882C120.015 35.8031 119.894 35.61 119.766 35.4221C119.729 35.3689 119.713 35.3213 119.768 35.2764C119.787 35.2609 119.819 35.253 119.844 35.2557C119.92 35.2638 120.363 35.8896 120.353 35.9928Z" fill="#4A473E"/>
<path fill-rule="evenodd" clip-rule="evenodd" d="M99.2947 36.0472C99.3399 36.0322 99.3559 36.0207 99.3655 36.0246C99.5896 36.1139 99.6942 36.308 99.7835 36.5118C99.7887 36.5237 99.7087 36.5911 99.7028 36.5867C99.5152 36.4467 99.3685 36.2766 99.2947 36.0472Z" fill="#4A473E"/>
<path fill-rule="evenodd" clip-rule="evenodd" d="M107.999 36.7519C107.79 36.6613 107.651 36.5098 107.518 36.2525C107.833 36.3382 107.956 36.508 107.999 36.7519Z" fill="#4A473E"/>
</svg>
