<svg width="16" height="16" viewBox="0 0 16 16" fill="none" xmlns="http://www.w3.org/2000/svg">
<path fill-rule="evenodd" clip-rule="evenodd" d="M13.4668 13.5686C13.8081 13.2561 14.0015 12.8144 13.9997 12.3522L13.9997 10.7187C14.0166 9.8885 13.4095 9.17583 12.5851 9.05973C12.0948 8.99516 11.6183 8.87666 11.1596 8.70581C10.5598 8.48074 9.88228 8.62499 9.42572 9.07568L9.03042 9.47028C8.01914 8.82677 7.161 7.97014 6.51637 6.96063L6.9095 6.56819C7.36314 6.11026 7.50764 5.4339 7.28171 4.83392C7.11103 4.37731 6.99232 3.9016 6.92831 3.41711C6.81208 2.5961 6.10849 1.99205 5.28299 2.00008L3.64365 2.00005C3.1814 2.00057 2.74122 2.19468 2.42999 2.53502C2.11874 2.87539 1.96513 3.33068 2.00668 3.78967C2.19657 5.57527 2.80229 7.28291 3.77562 8.78275C4.6579 10.1688 5.83853 11.3474 7.23107 12.2307C8.72249 13.1962 10.4248 13.8007 12.1971 13.993C12.6682 14.0356 13.1256 13.8811 13.4668 13.5686ZM12.9034 10.699L12.9033 10.7126V12.3544C12.9039 12.5107 12.8394 12.6579 12.7257 12.7621C12.6119 12.8663 12.4595 12.9177 12.3057 12.9039C10.7139 12.7311 9.17527 12.1847 7.82346 11.3096C6.56252 10.5097 5.49707 9.44617 4.69852 8.19169C3.81623 6.83209 3.26878 5.28874 3.09792 3.68262C3.08491 3.53816 3.13611 3.3864 3.23986 3.27294C3.34362 3.15948 3.49039 3.09475 3.64434 3.09458L5.28841 3.09458C5.56896 3.09188 5.80352 3.29325 5.84203 3.56526C5.91617 4.12656 6.05493 4.68262 6.25499 5.21781C6.33076 5.41904 6.28259 5.64449 6.1321 5.79641L5.43802 6.48927C5.26351 6.66347 5.22711 6.93259 5.3491 7.14675C6.17831 8.60249 7.38575 9.80782 8.84405 10.6356C9.05858 10.7573 9.32818 10.721 9.50269 10.5468L10.1989 9.85178C10.3489 9.70371 10.5748 9.65563 10.7751 9.73081C11.3125 9.93098 11.8695 10.0695 12.4369 10.1442C12.7076 10.1823 12.9104 10.4212 12.9034 10.699Z" fill="white"/>
</svg>
