<svg width="24" height="24" viewBox="0 0 24 24" fill="none" xmlns="http://www.w3.org/2000/svg">
<path fill-rule="evenodd" clip-rule="evenodd" d="M7.2 20H16.8C18.5673 20 20 18.5673 20 16.8V7.2C20 5.43269 18.5673 4 16.8 4H7.2C5.43269 4 4 5.43269 4 7.2V16.8C4 18.5673 5.43269 20 7.2 20ZM10.4577 13.6042L10.0007 13.9596C10.0953 13.5333 10.1662 13.0587 10.2193 12.5792H12.3577C12.3577 11.7875 12.0767 11.7792 12.0767 11.7792H10.2924C10.3924 10.4346 10.3743 9.25138 10.3743 9.25138H12.1577V8.94964C12.1577 8.70781 11.9616 8.51178 11.7198 8.51178H8.73874L9.22433 7.04583C8.82433 7.02917 8.30767 7.2125 8.05767 7.97917C7.80767 8.74583 7.05767 10.5125 7.05767 10.5125C8.05767 10.5125 8.341 9.7125 8.341 9.7125L8.49375 9.25138H9.50767L9.491 11.7792H7.68267C7.20767 11.7792 7.10767 12.5792 7.10767 12.5792H9.39689C8.89105 15.7675 6.90767 16.9292 6.90767 16.9292C8.541 17.0792 8.80767 16.5958 9.62433 15.0792C9.7529 14.8404 9.85951 14.5322 9.948 14.1826L11.7493 16.4125C11.7493 16.4125 11.991 15.3792 11.7077 15.0458C11.4243 14.7125 10.4577 13.6042 10.4577 13.6042ZM12.8283 15.8452V8.3465H17.0923V15.8452H15.3377L13.911 16.7465L13.6417 15.8452H12.8283ZM15.2737 14.9785H16.223V9.21317H13.695V14.9785H14.063L14.2817 15.6132L15.2737 14.9785Z" fill="white"/>
</svg>
