<svg width="24" height="24" viewBox="0 0 24 24" fill="none" xmlns="http://www.w3.org/2000/svg">
<path fill-rule="evenodd" clip-rule="evenodd" d="M20.2282 11.3628C20.8905 11.3054 21.06 10.1448 20.9827 9.1764C20.7772 6.61149 18.5715 4.67105 15.6488 5.04662C15.6085 5.05182 15.5682 5.05642 15.5283 5.06098C15.1838 5.1003 14.865 5.13669 14.7938 5.53265C14.649 6.35661 15.395 6.28601 15.9387 6.23455C16.0569 6.22337 16.1654 6.21309 16.2533 6.21309C17.991 6.21309 19.7647 7.60711 19.725 9.61382C19.7215 9.78499 19.6843 9.98415 19.6468 10.1856C19.5324 10.7988 19.4141 11.4332 20.2282 11.3628ZM16.203 11.5079C16.3975 11.6106 16.598 11.7053 16.7971 11.7994C17.8843 12.313 18.9296 12.8068 18.7185 14.4712C18.258 18.1009 10.4281 20.5392 5.53738 17.8719C4.19639 17.1399 2.80816 16.0692 3.02191 13.9365C3.2064 12.1007 4.48439 10.6787 5.73913 9.46728C6.93611 8.31112 8.1976 7.40681 9.91433 6.99C11.7773 6.53785 12.3278 8.03717 11.8261 9.51588C12.1309 9.49612 12.5321 9.38916 12.9737 9.27143C14.0954 8.97239 15.4776 8.6039 16.203 9.41868C16.6485 9.91943 16.4783 10.8156 16.203 11.5079ZM14.8448 16.1715C15.2475 15.7312 15.6518 15.0596 15.6495 14.2775C15.642 11.041 9.92333 10.3186 6.79512 12.0911C3.2349 14.1089 4.73789 17.7349 9.10959 18.0177C11.4256 18.1679 13.7438 17.3785 14.8448 16.1715ZM17.964 10.5851C17.4142 10.6205 17.431 10.33 17.455 9.91559C17.463 9.77765 17.4718 9.62598 17.4607 9.46802C17.433 9.07846 17.0985 8.62851 16.8068 8.49596C16.5967 8.40079 16.3442 8.40091 16.1088 8.40103C15.7031 8.40123 15.348 8.4014 15.348 7.91346C15.348 7.40952 15.7461 7.39499 16.04 7.38426C16.0802 7.38279 16.1185 7.3814 16.1535 7.37883C18.8197 7.18294 18.9847 10.5196 17.964 10.5851ZM7.09736 15.9293C8.11885 18.6171 13.7033 17.1627 12.6316 14.0345C12.3098 13.0992 11.2223 12.3805 9.76358 12.5285C8.0551 12.7016 6.41412 14.1317 7.09736 15.9293ZM10.0651 14.5691C10.2923 14.9491 10.8151 14.6759 10.7693 14.3747C10.7146 14.0264 10.0606 14.0779 10.0651 14.5691ZM9.15984 16.2209C10.0988 16.0051 10.2248 14.2974 8.80734 14.6177C7.61711 14.8858 7.84735 16.5221 9.15984 16.2209Z" fill="white"/>
</svg>
