<svg width="24" height="24" viewBox="0 0 24 24" fill="none" xmlns="http://www.w3.org/2000/svg">
<path fill-rule="evenodd" clip-rule="evenodd" d="M3 9.625C3 6.51887 6.02175 4 9.75 4C13.044 4 15.7834 5.96762 16.3774 8.56862C16.0489 8.52812 15.7159 8.5 15.375 8.5C11.6524 8.5 8.625 11.0234 8.625 14.125C8.625 14.4861 8.67 14.8382 8.74875 15.1814C8.17163 15.1105 7.63163 14.9586 7.11188 14.7741L4.6875 15.8125L5.57737 14.0328C4.01025 13.0045 3 11.416 3 9.625ZM15.375 9.625C18.4811 9.625 21 11.6399 21 14.125C21 15.5639 20.1405 16.8306 18.8265 17.6541L19.875 19.75L16.8431 18.4506C16.3717 18.553 15.8857 18.625 15.375 18.625C12.2689 18.625 9.75 16.6101 9.75 14.125C9.75 11.6399 12.2689 9.625 15.375 9.625ZM7.5 8.21875C7.96599 8.21875 8.34375 7.84099 8.34375 7.375C8.34375 6.90901 7.96599 6.53125 7.5 6.53125C7.03401 6.53125 6.65625 6.90901 6.65625 7.375C6.65625 7.84099 7.03401 8.21875 7.5 8.21875ZM12.8438 7.375C12.8438 7.84099 12.466 8.21875 12 8.21875C11.534 8.21875 11.1562 7.84099 11.1562 7.375C11.1562 6.90901 11.534 6.53125 12 6.53125C12.466 6.53125 12.8438 6.90901 12.8438 7.375ZM13.6875 13.8438C14.1535 13.8438 14.5312 13.466 14.5312 13C14.5312 12.534 14.1535 12.1562 13.6875 12.1562C13.2215 12.1562 12.8438 12.534 12.8438 13C12.8438 13.466 13.2215 13.8438 13.6875 13.8438ZM17.9062 13C17.9062 13.466 17.5285 13.8438 17.0625 13.8438C16.5965 13.8438 16.2188 13.466 16.2188 13C16.2188 12.534 16.5965 12.1562 17.0625 12.1562C17.5285 12.1562 17.9062 12.534 17.9062 13Z" fill="white"/>
</svg>
